<svg width="219" height="92" viewBox="0 0 219 92" fill="none" xmlns="http://www.w3.org/2000/svg">
<g filter="url(#filter0_d_4047_8157)">
<path d="M194.177 58.0031C194.177 60.7743 191.886 63.0189 189.052 63.0189H21.3099C18.477 63.0189 16.1775 60.7743 16.1775 58.0031V18.0036C16.1775 15.2337 18.477 12.9812 21.3099 12.9812H189.05C191.886 12.9812 194.176 15.2337 194.176 18.0036L194.177 58.0031Z" fill="#1A2026"/>
</g>
<path d="M188.511 13.0416C191.597 13.0416 194.109 15.4905 194.109 18.5V57.5C194.109 60.5095 191.597 62.9584 188.511 62.9584H21.8442C18.7575 62.9584 16.2458 60.5095 16.2458 57.5V18.5C16.2458 15.4905 18.7575 13.0416 21.8442 13.0416H188.511ZM188.511 12H21.8442C18.1792 12 15.1775 14.9266 15.1775 18.5V57.5C15.1775 61.0734 18.1792 64 21.8442 64H188.511C192.176 64 195.177 61.0734 195.177 57.5V18.5C195.177 14.9266 192.176 12 188.511 12Z" fill="#4CFFB3"/>
<path d="M55.3482 37.7191C55.3095 33.5292 58.8669 31.4908 59.0295 31.3959C57.0149 28.532 53.8922 28.1407 52.7949 28.1095C50.1722 27.8404 47.6282 29.6396 46.2922 29.6396C44.9295 29.6396 42.8722 28.1355 40.6549 28.1797C37.8015 28.2226 35.1322 29.8333 33.6682 32.3345C30.6469 37.4344 32.9002 44.9289 35.7949 49.0512C37.2429 51.0701 38.9349 53.3243 41.1495 53.245C43.3162 53.1579 44.1255 51.8982 46.7402 51.8982C49.3309 51.8982 50.0909 53.245 52.3495 53.1943C54.6749 53.1579 56.1389 51.1663 57.5362 49.1292C59.2095 46.8152 59.8815 44.5363 59.9082 44.4193C59.8535 44.4011 55.3922 42.741 55.3482 37.7191Z" fill="#4CFFB3"/>
<path d="M51.0815 25.3977C52.2469 23.9768 53.0442 22.0437 52.8229 20.082C51.1362 20.1548 49.0269 21.2195 47.8122 22.6092C46.7375 23.8338 45.7775 25.841 46.0255 27.7286C47.9202 27.8664 49.8655 26.7965 51.0815 25.3977Z" fill="#4CFFB3"/>
<path d="M80.5775 25.0116C80.5775 26.5417 80.1068 27.6935 79.1668 28.467C78.2962 29.1807 77.0588 29.5382 75.4562 29.5382C74.6615 29.5382 73.9815 29.5044 73.4122 29.4368V21.0765C74.1548 20.9595 74.9548 20.8997 75.8188 20.8997C77.3455 20.8997 78.4962 21.2234 79.2722 21.8708C80.1415 22.6027 80.5775 23.6492 80.5775 25.0116ZM79.1042 25.0493C79.1042 24.0574 78.8348 23.2969 78.2962 22.7665C77.7575 22.2374 76.9708 21.9722 75.9348 21.9722C75.4948 21.9722 75.1202 22.0008 74.8095 22.0606V28.4163C74.9815 28.4423 75.2962 28.454 75.7535 28.454C76.8228 28.454 77.6482 28.1641 78.2295 27.5843C78.8108 27.0045 79.1042 26.1595 79.1042 25.0493Z" fill="#4CFFB3"/>
<path d="M88.3895 26.3479C88.3895 27.2904 88.1135 28.0626 87.5615 28.6684C86.9829 29.2911 86.2162 29.6018 85.2589 29.6018C84.3362 29.6018 83.6015 29.3041 83.0535 28.7061C82.5069 28.1094 82.2335 27.3567 82.2335 26.4493C82.2335 25.5003 82.5149 24.7216 83.0802 24.1171C83.6455 23.5126 84.4055 23.2097 85.3629 23.2097C86.2855 23.2097 87.0269 23.5074 87.5882 24.1041C88.1215 24.6839 88.3895 25.4327 88.3895 26.3479ZM86.9402 26.3921C86.9402 25.8266 86.8149 25.3417 86.5655 24.9374C86.2722 24.4486 85.8549 24.2042 85.3122 24.2042C84.7509 24.2042 84.3242 24.4486 84.0309 24.9374C83.7802 25.3417 83.6562 25.8344 83.6562 26.4168C83.6562 26.9823 83.7815 27.4672 84.0309 27.8715C84.3335 28.3603 84.7549 28.6047 85.2989 28.6047C85.8322 28.6047 86.2509 28.3564 86.5522 27.8585C86.8109 27.4464 86.9402 26.9576 86.9402 26.3921Z" fill="#4CFFB3"/>
<path d="M98.8642 23.3347L96.8975 29.4629H95.6175L94.8028 26.8018C94.5962 26.1375 94.4282 25.4771 94.2975 24.8219H94.2722C94.1508 25.4953 93.9828 26.1544 93.7668 26.8018L92.9015 29.4629H91.6068L89.7575 23.3347H91.1935L91.9042 26.248C92.0762 26.937 92.2175 27.5935 92.3308 28.2149H92.3562C92.4602 27.7027 92.6322 27.0501 92.8748 26.261L93.7668 23.336H94.9055L95.7602 26.1986C95.9668 26.8967 96.1348 27.5688 96.2642 28.2162H96.3028C96.3975 27.5857 96.5402 26.9136 96.7295 26.1986L97.4922 23.336H98.8642V23.3347Z" fill="#4CFFB3"/>
<path d="M106.108 29.4627H104.711V25.9527C104.711 24.8711 104.29 24.3303 103.444 24.3303C103.03 24.3303 102.695 24.4785 102.435 24.7762C102.178 25.0739 102.047 25.4249 102.047 25.8266V29.4614H100.65V25.0856C100.65 24.5474 100.632 23.9637 100.599 23.3319H101.827L101.892 24.29H101.931C102.094 23.9923 102.336 23.7466 102.655 23.5503C103.034 23.3215 103.458 23.2058 103.922 23.2058C104.508 23.2058 104.996 23.3904 105.384 23.7609C105.867 24.2146 106.108 24.8919 106.108 25.7915V29.4627Z" fill="#4CFFB3"/>
<path d="M109.961 29.4628H108.565V20.5227H109.961V29.4628Z" fill="#4CFFB3"/>
<path d="M118.188 26.3479C118.188 27.2904 117.912 28.0626 117.36 28.6684C116.782 29.2911 116.014 29.6018 115.058 29.6018C114.134 29.6018 113.399 29.3041 112.852 28.7061C112.305 28.1094 112.032 27.3567 112.032 26.4493C112.032 25.5003 112.314 24.7216 112.879 24.1171C113.444 23.5126 114.204 23.2097 115.16 23.2097C116.084 23.2097 116.824 23.5074 117.387 24.1041C117.92 24.6839 118.188 25.4327 118.188 26.3479ZM116.737 26.3921C116.737 25.8266 116.612 25.3417 116.363 24.9374C116.071 24.4486 115.652 24.2042 115.111 24.2042C114.548 24.2042 114.121 24.4486 113.829 24.9374C113.579 25.3417 113.455 25.8344 113.455 26.4168C113.455 26.9823 113.58 27.4672 113.829 27.8715C114.132 28.3603 114.554 28.6047 115.098 28.6047C115.631 28.6047 116.048 28.3564 116.349 27.8585C116.609 27.4464 116.737 26.9576 116.737 26.3921Z" fill="#4CFFB3"/>
<path d="M124.951 29.4627H123.696L123.592 28.7568H123.553C123.124 29.3197 122.512 29.6018 121.717 29.6018C121.124 29.6018 120.644 29.4159 120.283 29.0467C119.955 28.7113 119.791 28.294 119.791 27.7987C119.791 27.0499 120.111 26.4792 120.755 26.084C121.397 25.6888 122.302 25.4951 123.465 25.5042V25.3898C123.465 24.5825 123.031 24.1795 122.16 24.1795C121.54 24.1795 120.994 24.3316 120.522 24.6332L120.237 23.7388C120.821 23.3865 121.543 23.2097 122.393 23.2097C124.036 23.2097 124.86 24.0547 124.86 25.7447V28.0015C124.86 28.6138 124.891 29.1013 124.951 29.4627ZM123.5 27.3567V26.4116C121.959 26.3856 121.188 26.7977 121.188 27.6466C121.188 27.9664 121.276 28.2056 121.456 28.3655C121.636 28.5254 121.865 28.6047 122.139 28.6047C122.445 28.6047 122.732 28.5098 122.993 28.3213C123.256 28.1315 123.417 27.891 123.477 27.5959C123.492 27.5296 123.5 27.449 123.5 27.3567Z" fill="#4CFFB3"/>
<path d="M132.891 29.4628H131.651L131.586 28.4787H131.547C131.151 29.2275 130.476 29.6019 129.528 29.6019C128.771 29.6019 128.14 29.312 127.64 28.7322C127.14 28.1524 126.891 27.3997 126.891 26.4754C126.891 25.4835 127.162 24.6801 127.706 24.0665C128.232 23.4945 128.878 23.2085 129.646 23.2085C130.49 23.2085 131.08 23.4854 131.416 24.0405H131.443V20.5227H132.842V27.8118C132.842 28.4085 132.858 28.9584 132.891 29.4628ZM131.443 26.8784V25.8566C131.443 25.6798 131.43 25.5368 131.404 25.4276C131.326 25.1 131.156 24.8244 130.899 24.6021C130.639 24.3798 130.326 24.268 129.964 24.268C129.443 24.268 129.035 24.4695 128.735 24.8738C128.438 25.2781 128.287 25.7942 128.287 26.4247C128.287 27.0305 128.43 27.5219 128.716 27.9002C129.019 28.3032 129.427 28.5047 129.938 28.5047C130.396 28.5047 130.763 28.337 131.042 28.0003C131.311 27.6896 131.443 27.3152 131.443 26.8784Z" fill="#4CFFB3"/>
<path d="M144.842 26.3479C144.842 27.2904 144.566 28.0626 144.014 28.6684C143.435 29.2911 142.67 29.6018 141.711 29.6018C140.79 29.6018 140.055 29.3041 139.506 28.7061C138.959 28.1094 138.686 27.3567 138.686 26.4493C138.686 25.5003 138.967 24.7216 139.532 24.1171C140.098 23.5126 140.858 23.2097 141.816 23.2097C142.738 23.2097 143.48 23.5074 144.04 24.1041C144.574 24.6839 144.842 25.4327 144.842 26.3479ZM143.394 26.3921C143.394 25.8266 143.268 25.3417 143.019 24.9374C142.724 24.4486 142.308 24.2042 141.764 24.2042C141.204 24.2042 140.778 24.4486 140.483 24.9374C140.232 25.3417 140.108 25.8344 140.108 26.4168C140.108 26.9823 140.234 27.4672 140.483 27.8715C140.786 28.3603 141.207 28.6047 141.751 28.6047C142.284 28.6047 142.704 28.3564 143.006 27.8585C143.263 27.4464 143.394 26.9576 143.394 26.3921Z" fill="#4CFFB3"/>
<path d="M152.355 29.4627H150.959V25.9527C150.959 24.8711 150.538 24.3303 149.691 24.3303C149.276 24.3303 148.942 24.4785 148.683 24.7762C148.424 25.0739 148.295 25.4249 148.295 25.8266V29.4614H146.896V25.0856C146.896 24.5474 146.88 23.9637 146.847 23.3319H148.074L148.139 24.29H148.178C148.342 23.9923 148.584 23.7466 148.902 23.5503C149.282 23.3215 149.704 23.2058 150.17 23.2058C150.755 23.2058 151.243 23.3904 151.631 23.7609C152.115 24.2146 152.355 24.8919 152.355 25.7915V29.4627Z" fill="#4CFFB3"/>
<path d="M161.759 24.355H160.22V27.332C160.22 28.0886 160.494 28.4669 161.035 28.4669C161.286 28.4669 161.494 28.4461 161.658 28.4032L161.694 29.4367C161.418 29.5381 161.055 29.5888 160.608 29.5888C160.056 29.5888 159.627 29.425 159.316 29.0974C159.004 28.7698 158.85 28.2186 158.85 27.4451V24.355H157.931V23.3345H158.85V22.2113L160.219 21.8083V23.3333H161.758V24.355H161.759Z" fill="#4CFFB3"/>
<path d="M169.156 29.4628H167.758V25.9788C167.758 24.8803 167.336 24.3304 166.492 24.3304C165.844 24.3304 165.402 24.6489 165.159 25.2859C165.118 25.4198 165.094 25.5836 165.094 25.776V29.4615H163.698V20.5227H165.094V24.216H165.12C165.56 23.5439 166.191 23.2085 167.008 23.2085C167.587 23.2085 168.066 23.3931 168.446 23.7636C168.919 24.2251 169.156 24.9115 169.156 25.8189V29.4628Z" fill="#4CFFB3"/>
<path d="M176.787 26.1087C176.787 26.3531 176.768 26.5585 176.735 26.7262H172.544C172.563 27.332 172.763 27.7935 173.151 28.1133C173.506 28.3993 173.963 28.5423 174.523 28.5423C175.143 28.5423 175.708 28.4461 176.218 28.2524L176.436 29.1988C175.84 29.451 175.139 29.5771 174.327 29.5771C173.354 29.5771 172.587 29.2976 172.032 28.7386C171.475 28.1796 171.199 27.4295 171.199 26.4883C171.199 25.564 171.456 24.7944 171.975 24.1808C172.516 23.5256 173.248 23.198 174.172 23.198C175.076 23.198 175.763 23.5256 176.227 24.1808C176.602 24.7008 176.787 25.3443 176.787 26.1087ZM175.454 25.7564C175.464 25.3521 175.372 25.0037 175.183 24.7099C174.94 24.3316 174.571 24.1418 174.071 24.1418C173.615 24.1418 173.243 24.3264 172.959 24.6969C172.727 24.992 172.59 25.3443 172.544 25.7564H175.454Z" fill="#4CFFB3"/>
<path d="M86.7041 52.9552H83.6761L82.0175 47.8735H76.2521L74.6721 52.9552H71.7241L77.4361 35.6548H80.9641L86.7041 52.9552ZM81.5175 45.7415L80.0175 41.224C79.8588 40.7625 79.5615 39.6757 79.1228 37.9649H79.0695C78.8948 38.7007 78.6135 39.7875 78.2268 41.224L76.7535 45.7415H81.5175Z" fill="#4CFFB3"/>
<path d="M101.393 46.5645C101.393 48.6861 100.805 50.3631 99.6295 51.5942C98.5761 52.6901 97.2681 53.2374 95.7068 53.2374C94.0215 53.2374 92.8108 52.6472 92.0735 51.4668H92.0201V58.0383H89.1775V44.5872C89.1775 43.2534 89.1415 41.8845 89.0721 40.4805H91.5721L91.7308 42.4578H91.7841C92.7321 40.968 94.1708 40.2244 96.1015 40.2244C97.6108 40.2244 98.8708 40.8055 99.8788 41.969C100.889 43.1338 101.393 44.6652 101.393 46.5645ZM98.4975 46.6659C98.4975 45.4517 98.2175 44.4507 97.6548 43.6629C97.0401 42.8413 96.2148 42.4305 95.1801 42.4305C94.4788 42.4305 93.8415 42.6593 93.2721 43.1104C92.7015 43.5654 92.3281 44.1595 92.1535 44.8953C92.0655 45.2385 92.0215 45.5193 92.0215 45.7403V47.8203C92.0215 48.7277 92.3068 49.4934 92.8775 50.1187C93.4481 50.744 94.1895 51.056 95.1015 51.056C96.1721 51.056 97.0055 50.653 97.6015 49.8496C98.1988 49.0449 98.4975 47.9841 98.4975 46.6659Z" fill="#4CFFB3"/>
<path d="M116.109 46.5645C116.109 48.6861 115.521 50.3631 114.344 51.5942C113.292 52.6901 111.984 53.2374 110.423 53.2374C108.737 53.2374 107.527 52.6472 106.791 51.4668H106.737V58.0383H103.895V44.5872C103.895 43.2534 103.859 41.8845 103.789 40.4805H106.289L106.448 42.4578H106.501C107.448 40.968 108.887 40.2244 110.819 40.2244C112.327 40.2244 113.587 40.8055 114.597 41.969C115.604 43.1338 116.109 44.6652 116.109 46.5645ZM113.213 46.6659C113.213 45.4517 112.932 44.4507 112.369 43.6629C111.755 42.8413 110.932 42.4305 109.896 42.4305C109.193 42.4305 108.557 42.6593 107.987 43.1104C107.416 43.5654 107.044 44.1595 106.869 44.8953C106.783 45.2385 106.737 45.5193 106.737 45.7403V47.8203C106.737 48.7277 107.023 49.4934 107.591 50.1187C108.161 50.7427 108.903 51.056 109.817 51.056C110.888 51.056 111.721 50.653 112.317 49.8496C112.915 49.0449 113.213 47.9841 113.213 46.6659Z" fill="#4CFFB3"/>
<path d="M132.563 48.1037C132.563 49.5753 132.039 50.7726 130.987 51.6969C129.831 52.707 128.221 53.2114 126.153 53.2114C124.244 53.2114 122.713 52.8526 121.555 52.1337L122.213 49.8236C123.461 50.5594 124.831 50.9286 126.323 50.9286C127.393 50.9286 128.227 50.692 128.825 50.2214C129.421 49.7508 129.719 49.119 129.719 48.3312C129.719 47.6292 129.473 47.0377 128.981 46.558C128.492 46.0783 127.675 45.6324 126.533 45.2203C123.427 44.0906 121.875 42.4357 121.875 40.2595C121.875 38.8373 122.419 37.6712 123.508 36.7638C124.593 35.8551 126.041 35.4014 127.852 35.4014C129.467 35.4014 130.808 35.6757 131.879 36.223L131.168 38.4824C130.168 37.952 129.037 37.6868 127.772 37.6868C126.772 37.6868 125.991 37.9273 125.431 38.4057C124.957 38.8334 124.72 39.3547 124.72 39.9722C124.72 40.656 124.991 41.2215 125.535 41.6661C126.008 42.0769 126.868 42.5215 128.116 43.0012C129.643 43.6005 130.764 44.3012 131.485 45.1046C132.204 45.9054 132.563 46.9077 132.563 48.1037Z" fill="#4CFFB3"/>
<path d="M141.961 42.5604H138.828V48.6171C138.828 50.1576 139.38 50.9272 140.487 50.9272C140.995 50.9272 141.416 50.8843 141.749 50.7985L141.828 52.9032C141.268 53.1073 140.531 53.21 139.617 53.21C138.495 53.21 137.617 52.8759 136.984 52.209C136.353 51.5408 136.036 50.4202 136.036 48.8459V42.5578H134.169V40.4778H136.036V38.1937L138.828 37.3721V40.4778H141.961V42.5604Z" fill="#4CFFB3"/>
<path d="M156.099 46.6151C156.099 48.5326 155.536 50.1069 154.413 51.338C153.236 52.6055 151.673 53.2373 149.725 53.2373C147.848 53.2373 146.353 52.6302 145.239 51.416C144.124 50.2018 143.567 48.6691 143.567 46.8218C143.567 44.8887 144.14 43.3053 145.291 42.0742C146.439 40.8418 147.988 40.2256 149.936 40.2256C151.813 40.2256 153.324 40.8327 154.464 42.0482C155.555 43.2273 156.099 44.7496 156.099 46.6151ZM153.149 46.7048C153.149 45.5543 152.897 44.5676 152.387 43.7447C151.791 42.7489 150.939 42.2523 149.835 42.2523C148.692 42.2523 147.824 42.7502 147.228 43.7447C146.717 44.5689 146.465 45.5712 146.465 46.7568C146.465 47.9073 146.717 48.894 147.228 49.7156C147.843 50.7114 148.701 51.208 149.809 51.208C150.895 51.208 151.747 50.701 152.361 49.6896C152.885 48.8511 153.149 47.854 153.149 46.7048Z" fill="#4CFFB3"/>
<path d="M165.339 42.918C165.057 42.8673 164.757 42.8413 164.443 42.8413C163.443 42.8413 162.669 43.2092 162.125 43.9463C161.652 44.5963 161.415 45.4179 161.415 46.4098V52.9553H158.573L158.6 44.4091C158.6 42.9713 158.564 41.6622 158.493 40.4818H160.969L161.073 42.8686H161.152C161.452 42.0483 161.925 41.3879 162.573 40.8926C163.207 40.4467 163.891 40.2244 164.628 40.2244C164.891 40.2244 165.128 40.2426 165.339 40.2751V42.918Z" fill="#4CFFB3"/>
<path d="M178.052 46.1276C178.052 46.6242 178.019 47.0428 177.948 47.3847H169.42C169.453 48.6171 169.865 49.5596 170.657 50.2096C171.376 50.7907 172.305 51.0819 173.447 51.0819C174.709 51.0819 175.861 50.8856 176.897 50.4917L177.343 52.4157C176.132 52.9305 174.703 53.1866 173.053 53.1866C171.069 53.1866 169.512 52.6172 168.379 51.4797C167.248 50.3422 166.681 48.8147 166.681 46.8985C166.681 45.0174 167.208 43.4509 168.263 42.2016C169.367 40.8678 170.859 40.2009 172.736 40.2009C174.58 40.2009 175.976 40.8678 176.924 42.2016C177.675 43.2611 178.052 44.5715 178.052 46.1276ZM175.341 45.4087C175.36 44.5871 175.175 43.8773 174.789 43.278C174.297 42.5071 173.541 42.1223 172.524 42.1223C171.595 42.1223 170.839 42.498 170.261 43.252C169.788 43.8513 169.507 44.5702 169.42 45.4074H175.341V45.4087Z" fill="#4CFFB3"/>
<defs>
<filter id="filter0_d_4047_8157" x="0.17749" y="0.981201" width="218" height="90.0378" filterUnits="userSpaceOnUse" color-interpolation-filters="sRGB">
<feFlood flood-opacity="0" result="BackgroundImageFix"/>
<feColorMatrix in="SourceAlpha" type="matrix" values="0 0 0 0 0 0 0 0 0 0 0 0 0 0 0 0 0 0 127 0" result="hardAlpha"/>
<feOffset dx="4" dy="8"/>
<feGaussianBlur stdDeviation="10"/>
<feComposite in2="hardAlpha" operator="out"/>
<feColorMatrix type="matrix" values="0 0 0 0 0.0705882 0 0 0 0 0.0823529 0 0 0 0 0.0901961 0 0 0 0.4 0"/>
<feBlend mode="normal" in2="BackgroundImageFix" result="effect1_dropShadow_4047_8157"/>
<feBlend mode="normal" in="SourceGraphic" in2="effect1_dropShadow_4047_8157" result="shape"/>
</filter>
</defs>
</svg>
