<svg width="204" height="59" viewBox="0 0 204 59" fill="none" xmlns="http://www.w3.org/2000/svg">
  <path fill-rule="evenodd" clip-rule="evenodd" d="M183.268 15.6104V20.8436L165.211 39.006H183.268V44.6703H157.652V39.745L175.95 21.2771H158.644L158.644 15.6104H183.268Z" fill="white" />
  <path fill-rule="evenodd" clip-rule="evenodd" d="M183.268 15.6104V20.8436L165.211 39.006H183.268V44.6703H157.652V39.745L175.95 21.2771H158.644L158.644 15.6104H183.268Z" stroke="white" stroke-width="0.430877" />
  <path fill-rule="evenodd" clip-rule="evenodd" d="M130.707 38.574C126.288 38.574 122.29 34.5341 122.29 30.1151C122.29 25.6962 126.288 21.6984 130.707 21.6984C135.126 21.6984 139.124 25.6962 139.124 30.1151C139.124 34.5341 135.126 38.574 130.707 38.574ZM130.704 15.4257C122.792 15.4257 115.974 22.2433 115.974 30.1552C115.974 38.0668 122.792 44.8847 130.704 44.8847C138.615 44.8847 145.433 38.0668 145.433 30.1552C145.433 22.2433 138.615 15.4257 130.704 15.4257Z" fill="white" />
  <path fill-rule="evenodd" clip-rule="evenodd" d="M97.1473 34.7424H104.097C102.183 40.634 96.6895 44.8847 90.2386 44.8847C82.2064 44.8847 75.6725 38.2772 75.6725 30.1552C75.6725 22.0329 82.2064 15.4257 90.2386 15.4257C96.6895 15.4257 102.142 19.6342 104.056 25.484H97.1057C95.9404 22.9167 93.1104 21.3176 90.2386 21.3176C85.6606 21.3176 81.9985 25.3154 81.9985 30.1552C81.9985 35.0368 85.6606 38.9928 90.2386 38.9928C93.152 38.9928 95.9819 37.2672 97.1473 34.7424Z" fill="white" />
  <path fill-rule="evenodd" clip-rule="evenodd" d="M46.8532 44.3613H35.2782L46.7835 32.9131L52.5707 38.672L46.8532 44.3613ZM17.986 50.0476L6.48068 50.117L18.0557 38.5992L6.55038 27.1514L12.2682 21.4618L29.491 38.5992L17.986 50.0476ZM23.7788 10.0196L29.4966 15.7091L35.2838 9.95049L41.0713 15.7091L35.2838 21.468L41.0016 27.1575L35.2838 32.8468L18.0613 15.7091L23.7788 10.0196ZM0.554565 58.6334H58.5183V0.956482H0.554565V58.6334Z" fill="white" />
  <path fill-rule="evenodd" clip-rule="evenodd" d="M1.08606 57.8447H202.445V1.72296H1.08606V57.8447Z" stroke="white" stroke-width="1.57588" />
</svg>
