<svg width="196" height="165" viewBox="0 0 196 165" fill="none" xmlns="http://www.w3.org/2000/svg">
<g opacity="0.7">
<g filter="url(#filter0_d_4047_8351)">
<path d="M156.357 44.6401C156.909 46.6991 155.659 48.8216 153.56 49.384L29.34 82.6687C27.2421 83.2308 25.0923 82.0192 24.5406 79.9602L16.5771 50.2398C16.0256 48.1817 17.28 46.0518 19.3779 45.4896L143.597 12.2052C145.697 11.6426 147.841 12.8618 148.393 14.9199L156.357 44.6401Z" fill="#1A2026"/>
</g>
<path d="M143.21 12.3573C145.495 11.7448 147.843 13.066 148.442 15.3021L156.207 44.2799C156.806 46.516 155.433 48.834 153.148 49.4464L29.7237 82.5178C27.4379 83.1302 25.0904 81.8091 24.4912 79.5729L16.7266 50.5952C16.1275 48.3591 17.4999 46.0411 19.7857 45.4286L143.21 12.3573ZM143.002 11.5834L19.5783 44.6547C16.8642 45.3819 15.224 48.1521 15.9355 50.8072L23.7 79.7849C24.4115 82.44 27.217 84.0189 29.9311 83.2917L153.355 50.2204C156.069 49.4931 157.709 46.723 156.998 44.0679L149.233 15.0901C148.522 12.435 145.716 10.8561 143.002 11.5834Z" fill="#818D95"/>
<path d="M49.5098 57.1165C48.647 54.011 50.8755 51.7905 50.977 51.6877C48.9149 49.9596 46.5245 50.2885 45.7057 50.483C43.7099 50.8035 42.1842 52.6451 41.1948 52.9102C40.1857 53.1806 38.3627 52.4713 36.7295 52.9441C34.625 53.5421 32.9689 55.2686 32.3828 57.4175C31.1607 61.8064 34.3215 66.9278 37.2858 69.4164C38.76 70.6291 40.4618 71.9683 42.0861 71.4699C43.6733 70.9753 44.0218 69.8787 45.9581 69.3599C47.8766 68.8458 48.7076 69.6957 50.3701 69.2099C52.0849 68.7214 52.7725 66.9511 53.4017 65.1603C54.1802 63.1089 54.2241 61.2823 54.2206 61.19C54.1765 61.1874 50.5422 60.8391 49.5098 57.1165Z" fill="#818D95"/>
<path d="M43.897 48.8081C44.4771 47.5211 44.6827 45.9265 44.1282 44.5129C42.8937 44.9016 41.5436 46.1113 40.9208 47.3849C40.3687 48.508 40.0574 50.1899 40.6169 51.5432C42.0474 51.2697 43.275 50.0887 43.897 48.8081Z" fill="#818D95"/>
<path d="M65.664 42.6683C65.9686 43.8052 65.8493 44.7544 65.3072 45.5157C64.8046 46.2187 63.9594 46.7299 62.7726 47.0479C62.1841 47.2056 61.6738 47.3154 61.2387 47.3781L59.5743 41.1663C60.1009 40.932 60.6815 40.7288 61.3213 40.5574C62.4519 40.2544 63.3684 40.2666 64.072 40.5937C64.8615 40.965 65.3927 41.656 65.664 42.6683ZM64.5804 42.9887C64.3829 42.2517 64.032 41.7401 63.5275 41.4529C63.0233 41.1666 62.3879 41.1257 61.6207 41.3312C61.2949 41.4185 61.0231 41.5141 60.805 41.6202L62.0703 46.3426C62.2029 46.3278 62.4382 46.2741 62.7769 46.1833C63.5688 45.9711 64.1223 45.592 64.4374 45.0458C64.7524 44.4997 64.8014 43.8136 64.5804 42.9887Z" fill="#818D95"/>
<path d="M71.7148 42.1112C71.9025 42.8115 71.8518 43.44 71.5636 43.9997C71.2591 44.5772 70.7532 44.9602 70.0443 45.1501C69.361 45.3332 68.7577 45.2578 68.2328 44.9222C67.7092 44.5873 67.3569 44.0823 67.1762 43.4081C66.9873 42.7029 67.0406 42.0685 67.3389 41.5072C67.6372 40.9459 68.1397 40.57 68.8487 40.38C69.5319 40.1969 70.1402 40.271 70.6747 40.603C71.1851 40.928 71.5326 41.4312 71.7148 42.1112ZM70.6503 42.4316C70.5377 42.0115 70.3484 41.676 70.0833 41.4251C69.7687 41.1201 69.411 41.0213 69.0091 41.129C68.5934 41.2404 68.3261 41.5067 68.2062 41.928C68.1011 42.2782 68.1074 42.6689 68.2233 43.1016C68.3359 43.5218 68.5252 43.8572 68.7904 44.1081C69.1118 44.4113 69.4725 44.5093 69.8754 44.4013C70.2703 44.2955 70.5309 44.0279 70.6549 43.5982C70.7645 43.2407 70.7629 42.8518 70.6503 42.4316Z" fill="#818D95"/>
<path d="M78.8718 37.7937L78.6355 42.7373L77.6876 42.9913L76.5545 41.1757C76.2692 40.7231 76.0133 40.2658 75.7861 39.8049L75.7673 39.8099C75.8115 40.3343 75.8183 40.8574 75.7873 41.3813L75.6763 43.5302L74.7175 43.7871L72.1279 39.6007L73.1913 39.3158L74.2976 41.3394C74.5622 41.8172 74.7976 42.2769 75.0052 42.7162L75.024 42.7111C74.999 42.3099 74.9964 41.7909 75.019 41.1564L75.0973 38.8061L75.9405 38.5802L77.1433 40.5375C77.4354 41.0152 77.6936 41.4813 77.9183 41.9367L77.9469 41.929C77.8915 41.4417 77.8633 40.914 77.8612 40.3452L77.856 38.0669L78.8721 37.7947L78.8718 37.7937Z" fill="#818D95"/>
<path d="M85.4564 40.9097L84.4217 41.187L83.7228 38.579C83.5075 37.7753 83.0878 37.4571 82.4618 37.6248C82.1547 37.7071 81.9364 37.8836 81.8031 38.1564C81.6718 38.4287 81.645 38.7154 81.7249 39.0139L82.4486 41.7146L81.4138 41.9919L80.5426 38.7406C80.4355 38.3407 80.3064 37.9104 80.156 37.4476L81.0653 37.2039L81.3045 37.9028L81.3331 37.8952C81.3943 37.6417 81.5251 37.411 81.722 37.2019C81.9569 36.9567 82.2478 36.7866 82.5914 36.6946C83.0259 36.5782 83.424 36.6185 83.7851 36.8168C84.2329 37.0581 84.5464 37.5135 84.7255 38.1819L85.4564 40.9097Z" fill="#818D95"/>
<path d="M88.3098 40.145L87.276 40.422L85.4961 33.7793L86.5299 33.5023L88.3098 40.145Z" fill="#818D95"/>
<path d="M93.7822 36.1982C93.9699 36.8985 93.9192 37.5271 93.631 38.0867C93.3265 38.6642 92.8196 39.0475 92.1116 39.2372C91.4274 39.4205 90.824 39.3451 90.3002 39.0092C89.7765 38.6743 89.4243 38.1693 89.2436 37.4951C89.0547 36.79 89.108 36.1556 89.4063 35.5942C89.7046 35.0329 90.2071 34.657 90.9151 34.4673C91.5993 34.284 92.2066 34.3583 92.7421 34.6901C93.2525 35.015 93.6 35.5182 93.7822 36.1982ZM92.7167 36.5189C92.6041 36.0988 92.4148 35.7633 92.1496 35.5124C91.8361 35.2072 91.4774 35.1086 91.0765 35.2161C90.6598 35.3277 90.3925 35.594 90.2736 36.0151C90.1685 36.3652 90.1747 36.7559 90.2907 37.1887C90.4033 37.6088 90.5926 37.9443 90.8578 38.1952C91.1792 38.4983 91.5399 38.5963 91.9427 38.4884C92.3377 38.3825 92.5973 38.1152 92.7213 37.6855C92.8318 37.3277 92.8293 36.9391 92.7167 36.5189Z" fill="#818D95"/>
<path d="M99.4108 37.1707L98.4817 37.4196L98.2641 36.9158L98.2355 36.9235C98.0296 37.4269 97.6326 37.7579 97.0441 37.9156C96.6047 38.0333 96.2123 37.9905 95.8712 37.7878C95.5615 37.6037 95.357 37.3262 95.2584 36.9582C95.1093 36.4018 95.2326 35.9143 95.6309 35.4928C96.0281 35.0717 96.659 34.7484 97.5228 34.5242L97.5 34.4392C97.3393 33.8393 96.9372 33.6261 96.2924 33.7989C95.8333 33.9219 95.4587 34.1434 95.1692 34.4612L94.7808 33.853C95.1432 33.4753 95.6422 33.2008 96.2721 33.032C97.4886 32.7061 98.267 33.1704 98.6035 34.4261L99.0528 36.103C99.1747 36.5579 99.2945 36.9141 99.4108 37.1707ZM97.9173 35.8937L97.7291 35.1915C96.5825 35.478 96.0939 35.9371 96.2629 36.5679C96.3265 36.8055 96.4393 36.9658 96.6045 37.0489C96.7696 37.132 96.9552 37.1454 97.1576 37.0911C97.3847 37.0303 97.5781 36.9029 97.7341 36.711C97.8908 36.5178 97.9624 36.3071 97.9481 36.076C97.9458 36.0238 97.9356 35.9623 97.9173 35.8937Z" fill="#818D95"/>
<path d="M105.291 35.5952L104.372 35.8412L104.128 35.123L104.099 35.1307C103.955 35.7656 103.53 36.1777 102.828 36.3658C102.267 36.516 101.742 36.4258 101.257 36.0942C100.771 35.7626 100.437 35.2528 100.253 34.566C100.055 33.829 100.096 33.1784 100.376 32.6145C100.652 32.085 101.073 31.7445 101.642 31.5921C102.267 31.4246 102.76 31.5131 103.119 31.8589L103.139 31.8536L102.438 29.2398L103.474 28.9623L104.925 34.3782C105.044 34.8216 105.165 35.227 105.291 35.5952ZM103.704 33.9622L103.5 33.203C103.465 33.0717 103.427 32.968 103.386 32.8919C103.263 32.6641 103.082 32.493 102.848 32.3788C102.611 32.2653 102.357 32.2444 102.089 32.3161C101.703 32.4195 101.441 32.6502 101.299 33.0101C101.16 33.3695 101.151 33.7829 101.276 34.2514C101.397 34.7015 101.6 35.0383 101.888 35.2625C102.192 35.5019 102.535 35.5706 102.913 35.4693C103.252 35.3783 103.491 35.1809 103.63 34.8755C103.767 34.5912 103.791 34.2868 103.704 33.9622Z" fill="#818D95"/>
<path d="M113.52 30.9095C113.708 31.6098 113.657 32.2384 113.369 32.798C113.065 33.3755 112.56 33.7582 111.85 33.9485C111.168 34.1313 110.564 34.0559 110.038 33.7205C109.515 33.3857 109.163 32.8806 108.982 32.2064C108.793 31.5013 108.846 30.8669 109.145 30.3055C109.443 29.7442 109.945 29.3683 110.655 29.1781C111.338 28.9953 111.947 29.0691 112.48 29.4014C112.991 29.7263 113.338 30.2295 113.52 30.9095ZM112.457 31.2297C112.344 30.8095 112.155 30.4741 111.89 30.2232C111.574 29.9185 111.218 29.8194 110.815 29.9274C110.4 30.0385 110.133 30.3047 110.012 30.7264C109.907 31.0765 109.913 31.4672 110.029 31.9C110.142 32.3201 110.331 32.6556 110.596 32.9065C110.917 33.2096 111.278 33.3076 111.681 33.1997C112.076 33.0938 112.338 32.826 112.462 32.3963C112.57 32.039 112.57 31.6499 112.457 31.2297Z" fill="#818D95"/>
<path d="M119.704 31.7331L118.671 32.0101L117.972 29.4021C117.757 28.5984 117.337 28.2802 116.71 28.4482C116.403 28.5305 116.184 28.707 116.052 28.9795C115.92 29.2521 115.894 29.5385 115.974 29.837L116.698 32.5377L115.662 32.8152L114.791 29.5639C114.684 29.164 114.555 28.7335 114.405 28.2707L115.313 28.0273L115.553 28.7262L115.581 28.7185C115.643 28.4648 115.774 28.2341 115.97 28.0253C116.206 27.7799 116.496 27.61 116.84 27.5177C117.274 27.4015 117.672 27.4419 118.033 27.6402C118.482 27.8812 118.794 28.3369 118.974 29.0053L119.704 31.7331Z" fill="#818D95"/>
<path d="M125.651 26.0719L124.512 26.3772L125.105 28.5892C125.255 29.1513 125.533 29.3782 125.934 29.2708C126.12 29.221 126.269 29.1643 126.382 29.0999L126.615 29.8606C126.431 29.9908 126.172 30.1004 125.841 30.189C125.432 30.2986 125.082 30.262 124.787 30.0803C124.49 29.8988 124.266 29.5199 124.112 28.9452L123.497 26.6492L122.817 26.8315L122.613 26.0732L123.294 25.8909L123.07 25.0564L124.004 24.4852L124.308 25.6182L125.447 25.3129L125.65 26.0721L125.651 26.0719Z" fill="#818D95"/>
<path d="M132.147 28.3991L131.111 28.6767L130.417 26.088C130.198 25.2718 129.777 24.9468 129.152 25.1143C128.672 25.2428 128.408 25.5673 128.355 26.0888C128.351 26.1965 128.366 26.3229 128.404 26.4659L129.138 29.2043L128.104 29.4813L126.324 22.8396L127.358 22.5626L128.093 25.3068L128.113 25.3015C128.305 24.7148 128.705 24.3405 129.311 24.1783C129.739 24.0634 130.13 24.1056 130.486 24.3055C130.928 24.5545 131.24 25.0174 131.421 25.6916L132.147 28.3991Z" fill="#818D95"/>
<path d="M137.13 24.3929C137.178 24.5745 137.205 24.7308 137.214 24.862L134.111 25.6936C134.245 26.14 134.485 26.4432 134.836 26.6038C135.156 26.746 135.523 26.7615 135.938 26.6503C136.397 26.5273 136.796 26.3437 137.135 26.0987L137.485 26.7585C137.094 27.0641 136.6 27.297 135.999 27.4581C135.278 27.6512 134.654 27.5957 134.132 27.2904C133.608 26.9857 133.255 26.4831 133.067 25.7837C132.883 25.097 132.921 24.4741 133.182 23.9152C133.453 23.321 133.93 22.9323 134.614 22.749C135.283 22.5696 135.857 22.6768 136.331 23.0715C136.712 23.3836 136.978 23.8249 137.13 24.3929ZM136.072 24.3957C136 24.0932 135.862 23.8526 135.663 23.6718C135.408 23.4389 135.097 23.3712 134.727 23.4704C134.389 23.5609 134.15 23.7718 134.014 24.1035C133.901 24.3688 133.869 24.6578 133.918 24.973L136.072 24.3957Z" fill="#818D95"/>
<path d="M75.7643 62.2152L73.5219 62.8161L71.2819 59.3694L67.0124 60.5134L66.854 64.6027L64.6709 65.1877L65.4565 51.1997L68.0692 50.4997L75.7643 62.2152ZM70.4871 57.8845L68.4769 54.8255C68.2675 54.5141 67.831 53.7656 67.1655 52.5815L67.126 52.5921C67.1432 53.1734 67.1512 54.0368 67.1508 55.1808L66.9592 58.8298L70.4871 57.8845Z" fill="#818D95"/>
<path d="M85.3701 54.5519C85.7925 56.1283 85.691 57.491 85.0652 58.6391C84.5033 59.6624 83.6437 60.3286 82.4874 60.6384C81.2394 60.9728 80.2253 60.7745 79.4443 60.0438L79.4048 60.0544L80.7131 64.9371L78.608 65.5012L75.93 55.5068C75.6644 54.5157 75.3653 53.5057 75.0344 52.4763L76.8857 51.9802L77.3969 53.4179L77.4364 53.4073C77.8418 52.1123 78.7592 51.2743 80.1889 50.8912C81.3066 50.5917 82.3554 50.7735 83.3335 51.4379C84.3139 52.1029 84.992 53.1407 85.3701 54.5519ZM83.2457 55.2019C83.004 54.2997 82.5973 53.6115 82.0238 53.1378C81.405 52.6493 80.7121 52.5079 79.9458 52.7132C79.4265 52.8524 79.0001 53.1488 78.6683 53.597C78.3362 54.0483 78.178 54.5638 78.1952 55.1452C78.1984 55.4176 78.2217 55.635 78.2657 55.7992L78.6798 57.3447C78.8604 58.0189 79.2242 58.5312 79.7713 58.8826C80.3184 59.234 80.9295 59.3187 81.6049 59.1377C82.3977 58.9253 82.9346 58.4605 83.216 57.7453C83.4982 57.0288 83.5082 56.1814 83.2457 55.2019Z" fill="#818D95"/>
<path d="M96.2676 51.6319C96.69 53.2083 96.5884 54.571 95.9617 55.7194C95.4008 56.7424 94.5411 57.4086 93.3849 57.7184C92.1368 58.0528 91.1228 57.8545 90.3427 57.1235L90.3032 57.1341L91.6116 62.0168L89.5064 62.5809L86.8284 52.5865C86.5629 51.5954 86.2637 50.5855 85.9328 49.556L87.7842 49.0599L88.2953 50.4976L88.3348 50.487C88.7393 49.1923 89.6566 48.3543 91.0874 47.9709C92.2041 47.6717 93.2529 47.8534 94.233 48.5174C95.2103 49.1831 95.8895 50.2207 96.2676 51.6319ZM94.1432 52.2819C93.9014 51.3797 93.4938 50.6918 92.9203 50.2181C92.3015 49.7296 91.6105 49.5876 90.8433 49.7932C90.323 49.9326 89.8975 50.2288 89.5647 50.6772C89.2327 51.1285 89.0755 51.6438 89.0926 52.2251C89.0968 52.4973 89.1191 52.715 89.1631 52.8792L89.5772 54.4247C89.7579 55.0989 90.1216 55.6112 90.6668 55.9631C91.2136 56.3135 91.825 56.3992 92.5023 56.2177C93.2952 56.0052 93.8321 55.5404 94.1135 54.8252C94.3956 54.1088 94.4056 53.2613 94.1432 52.2819Z" fill="#818D95"/>
<path d="M108.758 49.5107C109.051 50.6042 108.901 51.5977 108.306 52.4933C107.651 53.4732 106.56 54.1673 105.028 54.5776C103.615 54.9565 102.41 54.9936 101.408 54.6894L101.436 52.8422C102.507 53.1413 103.595 53.1439 104.699 52.8479C105.492 52.6354 106.062 52.2943 106.412 51.8258C106.76 51.3579 106.854 50.8294 106.697 50.2441C106.557 49.7225 106.258 49.3317 105.798 49.0729C105.34 48.8135 104.646 48.6444 103.719 48.5647C101.193 48.3418 99.7146 47.4201 99.2813 45.8031C98.9982 44.7464 99.1689 43.772 99.7949 42.8817C100.418 41.9911 101.4 41.3667 102.741 41.0074C103.936 40.687 104.984 40.6246 105.886 40.8189L105.81 42.6387C104.963 42.443 104.073 42.4703 103.136 42.7214C102.396 42.9198 101.865 43.2535 101.546 43.7201C101.28 44.1318 101.208 44.5662 101.331 45.0251C101.467 45.5331 101.78 45.8996 102.272 46.122C102.704 46.3333 103.429 46.493 104.449 46.6018C105.699 46.7442 106.669 47.0423 107.363 47.4961C108.055 47.9485 108.52 48.6221 108.758 49.5107Z" fill="#818D95"/>
<path d="M114.615 43.5271L112.294 44.1489L113.5 48.6491C113.807 49.7937 114.369 50.256 115.188 50.0364C115.565 49.9356 115.868 49.8202 116.098 49.6903L116.575 51.2385C116.201 51.5013 115.676 51.7239 114.999 51.9051C114.168 52.1279 113.452 52.0537 112.85 51.6839C112.25 51.3125 111.792 50.5429 111.478 49.3731L110.226 44.7009L108.844 45.0713L108.43 43.5259L109.812 43.1555L109.357 41.4583L111.261 40.2939L111.88 42.6014L114.2 41.9797L114.615 43.5271Z" fill="#818D95"/>
<path d="M125.891 43.7346C126.273 45.1593 126.17 46.4407 125.584 47.5782C124.964 48.7536 123.933 49.5331 122.49 49.9197C121.1 50.2922 119.872 50.1377 118.805 49.4567C117.738 48.7757 117.02 47.7474 116.652 46.3749C116.267 44.9385 116.377 43.6483 116.984 42.5052C117.588 41.3617 118.613 40.5964 120.056 40.2099C121.446 39.8374 122.685 39.9887 123.772 40.6656C124.814 41.3253 125.52 42.3485 125.891 43.7346ZM123.725 44.3865C123.496 43.5316 123.113 42.8485 122.571 42.3384C121.931 41.7167 121.202 41.5168 120.384 41.7359C119.538 41.9626 118.994 42.5048 118.751 43.362C118.537 44.0757 118.55 44.8705 118.786 45.7514C119.015 46.6062 119.398 47.2894 119.94 47.7985C120.593 48.4164 121.328 48.615 122.148 48.3952C122.952 48.1798 123.482 47.634 123.736 46.7606C123.957 46.0336 123.954 45.2403 123.725 44.3865Z" fill="#818D95"/>
<path d="M131.998 39.154C131.78 39.1721 131.552 39.2123 131.319 39.2748C130.579 39.4732 130.079 39.9 129.823 40.5556C129.602 41.1325 129.59 41.7901 129.787 42.5271L131.091 47.3905L128.986 47.9543L127.305 41.599C127.018 40.5307 126.731 39.5652 126.444 38.7021L128.277 38.2108L128.83 39.9636L128.888 39.948C128.947 39.279 129.166 38.6944 129.547 38.1978C129.927 37.7408 130.39 37.4399 130.936 37.2936C131.13 37.2415 131.309 37.2079 131.472 37.1902L131.998 39.154Z" fill="#818D95"/>
<path d="M142.052 39.0162C142.15 39.3852 142.209 39.7028 142.225 39.9709L135.91 41.6631C136.18 42.5721 136.672 43.1907 137.388 43.5165C138.036 43.8057 138.782 43.8376 139.628 43.6111C140.563 43.3606 141.377 42.9862 142.065 42.4879L142.778 43.8291C141.984 44.4518 140.977 44.9258 139.755 45.253C138.286 45.6467 137.019 45.5326 135.954 44.9123C134.89 44.2915 134.166 43.269 133.785 41.8452C133.41 40.4475 133.488 39.1791 134.021 38.0416C134.573 36.8314 135.545 36.0399 136.935 35.6674C138.3 35.3015 139.467 35.52 140.435 36.3229C141.201 36.9612 141.742 37.86 142.052 39.0162ZM139.901 39.0199C139.751 38.4057 139.473 37.9151 139.068 37.5463C138.55 37.0711 137.914 36.9352 137.16 37.1371C136.472 37.3215 135.987 37.7506 135.71 38.4254C135.479 38.9646 135.413 39.5546 135.516 40.1939L139.901 39.0189L139.901 39.0199Z" fill="#818D95"/>
<g filter="url(#filter1_d_4047_8351)">
<path d="M167.59 103.346L44.1664 136.418C41.4524 137.145 38.6468 135.566 37.9354 132.911L30.1708 103.933C29.4594 101.278 31.0996 98.5078 33.8137 97.7806L157.238 64.7093C159.952 63.982 162.757 65.561 163.469 68.2161L171.233 97.1938C171.945 99.8489 170.304 102.619 167.59 103.346Z" fill="#1A2026"/>
</g>
<path d="M157.445 65.4832C159.731 64.8707 162.078 66.1919 162.677 68.428L170.442 97.4058C171.041 99.6419 169.669 101.96 167.383 102.572L43.9591 135.644C41.6733 136.256 39.3257 134.935 38.7265 132.699L30.962 103.721C30.3628 101.485 31.7353 99.167 34.0211 98.5545L157.445 65.4832ZM157.238 64.7093L33.8137 97.7806C31.0996 98.5078 29.4594 101.278 30.1708 103.933L37.9354 132.911C38.6468 135.566 41.4524 137.145 44.1664 136.418L167.59 103.346C170.304 102.619 171.945 99.8489 171.233 97.1938L163.469 68.2161C162.757 65.561 159.952 63.982 157.238 64.7093Z" fill="#818D95"/>
<path d="M40.3911 103.823C40.1806 104.198 40.1367 104.705 40.2971 105.304L46.0209 126.665C46.1814 127.264 46.4731 127.682 46.8428 127.901L46.9318 127.947L55.9619 112.703L55.8862 112.42L40.4439 103.734L40.3911 103.823Z" fill="#818D95"/>
<path d="M62.5869 115.205L57.4434 112.306L57.3677 112.024L60.3777 106.94L60.4829 106.968L66.0342 108.362C67.6173 108.756 67.9538 110.011 66.7809 111.149L62.6693 115.127L62.5869 115.205Z" fill="#818D95"/>
<path d="M62.1272 116.069L56.8635 113.106L47.7822 128.446C48.3663 128.794 49.1282 128.651 49.8512 127.952L62.1272 116.069Z" fill="#818D95"/>
<path d="M59.5424 106.423L42.9693 102.27C41.9953 102.031 41.2637 102.288 40.932 102.882L56.4651 111.62L59.5424 106.423Z" fill="#818D95"/>
<path d="M78.3474 96.4529C78.5635 97.2594 78.4897 97.9715 78.1325 98.5836C77.7264 99.3045 77.0752 99.787 76.1829 100.026C75.33 100.255 74.5235 100.158 73.7718 99.7417C73.0167 99.3177 72.5258 98.6805 72.2958 97.8221C72.0657 96.9636 72.1723 96.1664 72.6156 95.4264C73.0573 94.6856 73.7072 94.1983 74.5601 93.9697C74.9847 93.856 75.4125 93.8332 75.8415 93.8891C76.2696 93.9465 76.6413 94.0798 76.9403 94.287L76.5609 94.9348C76.0421 94.5833 75.4422 94.5021 74.7523 94.6869C74.1302 94.8536 73.6478 95.2107 73.3047 95.762C72.967 96.3132 72.889 96.9307 73.0721 97.614C73.2552 98.2974 73.6328 98.798 74.2009 99.1065C74.7724 99.4076 75.37 99.4804 75.992 99.3137C76.6523 99.1368 77.1495 98.7706 77.4728 98.2246C77.6856 97.8635 77.7449 97.4283 77.6542 96.9169L75.5041 97.493L75.3171 96.7951L78.1855 96.0265C78.2605 96.1682 78.3095 96.3116 78.3474 96.4529Z" fill="#818D95" stroke="#818D95" stroke-width="0.16" stroke-miterlimit="10"/>
<path d="M82.2502 92.8139L79.5559 93.5358L80.0476 95.3711L82.4766 94.7202L82.6636 95.4181L80.2346 96.069L80.7264 97.9042L83.4207 97.1823L83.6113 97.8934L80.1542 98.8198L78.6025 93.0291L82.0596 92.1027L82.2502 92.8139Z" fill="#818D95" stroke="#818D95" stroke-width="0.16" stroke-miterlimit="10"/>
<path d="M86.8225 97.0329L86.0597 97.2373L84.6987 92.1577L83.046 92.6006L82.8555 91.8894L86.9247 90.799L87.1153 91.5102L85.4614 91.9534L86.8225 97.0329Z" fill="#818D95" stroke="#818D95" stroke-width="0.16" stroke-miterlimit="10"/>
<path d="M91.4217 95.8007L89.8701 90.0099L90.6316 89.8059L92.1833 95.5966L91.4217 95.8007Z" fill="#818D95" stroke="#818D95" stroke-width="0.16" stroke-miterlimit="10"/>
<path d="M95.5588 94.6922L94.8022 94.8949L93.4412 89.8153L91.7824 90.2598L91.5918 89.5486L95.666 88.457L95.8566 89.1681L94.1977 89.6126L95.5588 94.6922Z" fill="#818D95" stroke="#818D95" stroke-width="0.16" stroke-miterlimit="10"/>
<path d="M104.722 91.4384C104.295 92.1804 103.65 92.6664 102.787 92.8975C101.92 93.13 101.118 93.0316 100.377 92.6025C99.6382 92.1742 99.156 91.5347 98.9286 90.6859C98.7011 89.8371 98.799 89.0422 99.225 88.3017C99.6519 87.5597 100.297 87.0737 101.165 86.8412C102.022 86.6113 102.824 86.7097 103.566 87.1437C104.311 87.5755 104.792 88.2102 105.018 89.0542C105.246 89.903 105.148 90.6979 104.722 91.4384ZM100.811 91.966C101.367 92.2817 101.96 92.3558 102.596 92.1852C103.228 92.0158 103.709 91.654 104.028 91.1041C104.35 90.5533 104.423 89.9371 104.242 89.2622C104.061 88.5872 103.69 88.0901 103.136 87.7741C102.585 87.457 101.987 87.3842 101.355 87.5536C100.719 87.7242 100.242 88.0847 99.9191 88.6359C99.5971 89.1868 99.5241 89.8029 99.7049 90.4779C99.8858 91.1528 100.257 91.6499 100.811 91.966Z" fill="#818D95" stroke="#818D95" stroke-width="0.16" stroke-miterlimit="10"/>
<path d="M106.864 91.6628L105.312 85.8721L106.238 85.624L110.323 89.3564L110.356 89.3475L110.025 88.2432L109.116 84.8528L109.878 84.6488L111.43 90.4395L110.635 90.6525L106.354 86.7343L106.321 86.7432L106.654 87.8523L107.621 91.4601L106.864 91.6628Z" fill="#818D95" stroke="#818D95" stroke-width="0.16" stroke-miterlimit="10"/>
<path d="M101.782 102.088C99.463 102.71 98.0311 104.944 98.6694 107.326C99.3026 109.689 101.665 110.926 103.984 110.305C106.308 109.682 107.735 107.43 107.102 105.067C106.463 102.684 104.106 101.466 101.782 102.088ZM103.55 108.687C102.278 109.028 100.908 108.294 100.516 106.831C100.119 105.35 100.943 104.047 102.216 103.706C103.488 103.365 104.858 104.08 105.255 105.561C105.647 107.024 104.823 108.346 103.55 108.687ZM92.5883 104.552C90.2642 105.174 88.8373 107.407 89.4756 109.79C90.1087 112.152 92.4658 113.391 94.7899 112.768C97.1127 112.146 98.5361 109.894 97.903 107.531C97.2646 105.149 94.9111 103.929 92.5883 104.552ZM94.3564 111.15C93.0826 111.491 91.7088 110.758 91.3171 109.296C90.9201 107.815 91.7481 106.511 93.0218 106.17C94.2943 105.829 95.6596 106.545 96.0565 108.026C96.4483 109.488 95.6289 110.809 94.3564 111.15ZM81.9855 108.742L82.4533 110.488L86.7151 109.346C86.8518 110.355 86.7108 111.162 86.3337 111.799C85.8734 112.569 85.0841 113.499 83.3821 113.955C80.7594 114.658 78.1507 113.137 77.4633 110.571C76.7758 108.006 78.2747 105.385 80.8974 104.682C82.3156 104.302 83.4927 104.568 84.4425 105.066L85.3705 103.499C84.0388 102.789 82.4171 102.405 80.43 102.937C76.8334 103.901 74.5778 107.574 75.5206 111.092C76.4633 114.61 80.253 116.663 83.8496 115.7C85.7935 115.179 87.0867 114.164 87.9214 112.688C88.7893 111.222 88.7223 109.506 88.3723 108.2C88.2636 107.794 88.129 107.43 87.9839 107.135L81.9855 108.742ZM127.084 98.109C126.491 97.2831 124.967 95.8758 122.788 96.4598C120.628 97.0386 119.276 99.1854 119.93 101.629C120.547 103.931 122.811 105.26 125.197 104.621C127.126 104.104 127.931 102.655 128.209 101.862L126.527 101.312C126.233 102.124 125.704 102.751 124.763 103.003C123.829 103.253 123.046 103.014 122.395 102.303L127.403 98.5243L127.084 98.109ZM121.724 101.011C121.251 99.4402 122.34 98.279 123.275 98.0283C124.009 97.8318 124.727 98.0238 125.072 98.4814L121.724 101.011ZM118.227 106.22L120.073 105.726L116.838 93.6516L114.991 94.1463L118.227 106.22ZM113.313 99.9794L113.252 99.9959C112.708 99.6265 111.8 99.4038 110.798 99.6724C108.695 100.236 107.256 102.557 107.877 104.873C108.494 107.176 110.897 108.452 113 107.889C114.002 107.62 114.676 106.97 114.958 106.364L115.02 106.347L115.177 106.936C115.598 108.507 114.967 109.581 113.583 109.952C112.455 110.254 111.542 109.645 111.073 109.052L109.643 110.138C110.398 111.103 111.983 112.115 114.017 111.57C116.181 110.99 117.674 109.254 116.862 106.222L114.885 98.8452L113.135 99.3141L113.313 99.9794ZM112.724 106.229C111.452 106.569 110.107 105.813 109.723 104.379C109.335 102.931 110.117 101.589 111.39 101.248C112.644 100.912 113.915 101.704 114.303 103.151C114.688 104.586 113.978 105.893 112.724 106.229ZM133.928 89.0722L129.512 90.2555L132.747 102.33L134.589 101.836L133.363 97.2613L135.938 96.5714C137.983 96.0234 139.6 94.0383 138.984 91.7358C138.367 89.4345 135.968 88.5255 133.928 89.0722ZM135.536 94.879L132.913 95.5818L131.804 91.4416L134.426 90.7388C135.801 90.3704 136.886 91.2769 137.141 92.2296C137.391 93.1641 136.911 94.5106 135.536 94.879ZM146.454 90.0938C145.124 90.4503 143.894 91.3958 143.666 92.822L145.48 93.0543C145.652 92.2899 146.241 91.8993 146.925 91.7161C147.88 91.4601 148.999 91.7619 149.28 92.7493L149.314 92.876C148.93 92.777 148.142 92.6892 147.264 92.9244C145.504 93.396 143.965 94.8243 144.439 96.5931C144.872 98.2111 146.593 98.8668 148.214 98.4326C149.453 98.1005 149.99 97.3704 150.249 96.619L150.312 96.6021L150.562 97.5354L152.341 97.0589L151.1 92.4273C150.526 90.2865 148.571 89.5266 146.454 90.0938ZM148.005 96.7699C147.403 96.9313 146.485 96.864 146.289 96.1335C146.039 95.199 146.989 94.5599 147.895 94.3172C148.706 94.0999 149.133 94.1731 149.688 94.2718C149.843 95.4286 149.071 96.4842 148.005 96.7699ZM156.756 87.6169L156.041 93.4182L155.978 93.4351L152.388 88.7873L150.402 89.3195L155.65 95.7529L154.864 100.326L156.788 99.8102L158.804 87.068L156.756 87.6169ZM142.226 99.7897L144.073 99.295L140.837 87.2209L138.991 87.7156L142.226 99.7897Z" fill="#818D95"/>
</g>
<defs>
<filter id="filter0_d_4047_8351" x="0.447266" y="0.0679932" width="180.04" height="110.738" filterUnits="userSpaceOnUse" color-interpolation-filters="sRGB">
<feFlood flood-opacity="0" result="BackgroundImageFix"/>
<feColorMatrix in="SourceAlpha" type="matrix" values="0 0 0 0 0 0 0 0 0 0 0 0 0 0 0 0 0 0 127 0" result="hardAlpha"/>
<feOffset dx="4" dy="8"/>
<feGaussianBlur stdDeviation="10"/>
<feComposite in2="hardAlpha" operator="out"/>
<feColorMatrix type="matrix" values="0 0 0 0 0.0705882 0 0 0 0 0.0823529 0 0 0 0 0.0901961 0 0 0 0.4 0"/>
<feBlend mode="normal" in2="BackgroundImageFix" result="effect1_dropShadow_4047_8351"/>
<feBlend mode="normal" in="SourceGraphic" in2="effect1_dropShadow_4047_8351" result="shape"/>
</filter>
<filter id="filter1_d_4047_8351" x="14.0049" y="52.5321" width="181.395" height="112.063" filterUnits="userSpaceOnUse" color-interpolation-filters="sRGB">
<feFlood flood-opacity="0" result="BackgroundImageFix"/>
<feColorMatrix in="SourceAlpha" type="matrix" values="0 0 0 0 0 0 0 0 0 0 0 0 0 0 0 0 0 0 127 0" result="hardAlpha"/>
<feOffset dx="4" dy="8"/>
<feGaussianBlur stdDeviation="10"/>
<feComposite in2="hardAlpha" operator="out"/>
<feColorMatrix type="matrix" values="0 0 0 0 0.0705882 0 0 0 0 0.0823529 0 0 0 0 0.0901961 0 0 0 0.4 0"/>
<feBlend mode="normal" in2="BackgroundImageFix" result="effect1_dropShadow_4047_8351"/>
<feBlend mode="normal" in="SourceGraphic" in2="effect1_dropShadow_4047_8351" result="shape"/>
</filter>
</defs>
</svg>
