<svg width="221" height="92" viewBox="0 0 221 92" fill="none" xmlns="http://www.w3.org/2000/svg">
<g filter="url(#filter0_d_4047_8108)">
<path d="M189.833 64H23.1667C19.5017 64 16.5 61.0734 16.5 57.5V18.5C16.5 14.9266 19.5017 12 23.1667 12H189.833C193.498 12 196.5 14.9266 196.5 18.5V57.5C196.5 61.0734 193.498 64 189.833 64Z" fill="#1A2026"/>
</g>
<path d="M189.833 13.0416C192.92 13.0416 195.432 15.4905 195.432 18.5V57.5C195.432 60.5095 192.92 62.9584 189.833 62.9584H23.1667C20.08 62.9584 17.5683 60.5095 17.5683 57.5V18.5C17.5683 15.4905 20.08 13.0416 23.1667 13.0416H189.833ZM189.833 12H23.1667C19.5017 12 16.5 14.9266 16.5 18.5V57.5C16.5 61.0734 19.5017 64 23.1667 64H189.833C193.498 64 196.5 61.0734 196.5 57.5V18.5C196.5 14.9266 193.498 12 189.833 12Z" fill="#4CFFB3"/>
<path d="M29.4134 21.8004C29.0217 22.2002 28.795 22.8226 28.795 23.6286V52.3781C28.795 53.1841 29.0217 53.8064 29.4134 54.2062L29.51 54.2939L46.0334 38.1902V37.8099L29.51 21.7062L29.4134 21.8004Z" fill="#4CFFB3"/>
<path d="M53.535 43.5608L48.0333 38.1902V37.8099L53.5417 32.4393L53.665 32.5092L60.1883 36.128C62.05 37.155 62.05 38.845 60.1883 39.8785L53.665 43.4909L53.535 43.5608Z" fill="#4CFFB3"/>
<path d="M52.665 44.491L47.0333 39.0001L30.4133 55.2062C31.0317 55.84 32.04 55.9163 33.1867 55.2826L52.665 44.491Z" fill="#4CFFB3"/>
<path d="M52.665 31.5091L33.1867 20.7175C32.04 20.0903 31.0317 20.1666 30.4133 20.8004L47.0333 37L52.665 31.5091Z" fill="#4CFFB3"/>
<path d="M79.7233 25.3169C79.7233 26.4024 79.3899 27.2718 78.7333 27.9202C77.9783 28.6888 76.9949 29.0756 75.7899 29.0756C74.6383 29.0756 73.6549 28.6823 72.8483 27.9072C72.0399 27.1207 71.6366 26.1554 71.6366 25.0001C71.6366 23.8447 72.0399 22.8794 72.8483 22.0994C73.6549 21.3178 74.6383 20.9246 75.7899 20.9246C76.3633 20.9246 76.9099 21.0399 77.4316 21.2544C77.9516 21.4706 78.3749 21.7631 78.6816 22.1238L77.9849 22.8096C77.4499 22.1937 76.7216 21.8898 75.7899 21.8898C74.9499 21.8898 74.2216 22.1758 73.6033 22.7527C72.9916 23.3312 72.6849 24.0803 72.6849 25.0001C72.6849 25.9198 72.9916 26.6754 73.6033 27.2539C74.2216 27.8243 74.9499 28.1168 75.7899 28.1168C76.6816 28.1168 77.4316 27.8243 78.0233 27.2474C78.4133 26.8656 78.6349 26.3391 78.6933 25.6663H75.7899V24.7271H79.6633C79.7099 24.9302 79.7233 25.1268 79.7233 25.3169Z" fill="#4CFFB3" stroke="#4CFFB3" stroke-width="0.16" stroke-miterlimit="10"/>
<path d="M85.8683 22.0604H82.23V24.5304H85.51V25.4696H82.23V27.9396H85.8683V28.8968H81.2V21.1033H85.8683V22.0604Z" fill="#4CFFB3" stroke="#4CFFB3" stroke-width="0.16" stroke-miterlimit="10"/>
<path d="M90.2049 28.8968H89.1749V22.0604H86.9432V21.1033H92.4382V22.0604H90.2049V28.8968Z" fill="#4CFFB3" stroke="#4CFFB3" stroke-width="0.16" stroke-miterlimit="10"/>
<path d="M96.4149 28.8968V21.1033H97.4433V28.8968H96.4149Z" fill="#4CFFB3" stroke="#4CFFB3" stroke-width="0.16" stroke-miterlimit="10"/>
<path d="M102.002 28.8968H100.98V22.0604H98.7399V21.1033H104.242V22.0604H102.002V28.8968Z" fill="#4CFFB3" stroke="#4CFFB3" stroke-width="0.16" stroke-miterlimit="10"/>
<path d="M114.645 27.8942C113.857 28.6823 112.88 29.0756 111.715 29.0756C110.543 29.0756 109.567 28.6823 108.778 27.8942C107.992 27.1077 107.6 26.1424 107.6 25.0001C107.6 23.8577 107.992 22.8924 108.778 22.1059C109.567 21.3178 110.543 20.9246 111.715 20.9246C112.873 20.9246 113.85 21.3178 114.638 22.1124C115.432 22.9054 115.823 23.8642 115.823 25.0001C115.823 26.1424 115.432 27.1077 114.645 27.8942ZM109.54 27.2409C110.133 27.8243 110.855 28.1168 111.715 28.1168C112.568 28.1168 113.297 27.8243 113.883 27.2409C114.475 26.6576 114.775 25.9084 114.775 25.0001C114.775 24.0917 114.475 23.3426 113.883 22.7592C113.297 22.1758 112.568 21.8833 111.715 21.8833C110.855 21.8833 110.133 22.1758 109.54 22.7592C108.948 23.3426 108.648 24.0917 108.648 25.0001C108.648 25.9084 108.948 26.6576 109.54 27.2409Z" fill="#4CFFB3" stroke="#4CFFB3" stroke-width="0.16" stroke-miterlimit="10"/>
<path d="M117.268 28.8968V21.1033H118.518L122.405 27.1645H122.45L122.405 25.6663V21.1033H123.433V28.8968H122.36L118.29 22.5365H118.245L118.29 24.0413V28.8968H117.268Z" fill="#4CFFB3" stroke="#4CFFB3" stroke-width="0.16" stroke-miterlimit="10"/>
<path d="M107.347 40.2783C104.215 40.2783 101.657 42.602 101.657 45.8082C101.657 48.9883 104.215 51.3364 107.347 51.3364C110.485 51.3364 113.043 48.9883 113.043 45.8082C113.043 42.602 110.485 40.2783 107.347 40.2783ZM107.347 49.1589C105.628 49.1589 104.15 47.776 104.15 45.8082C104.15 43.8143 105.628 42.4558 107.347 42.4558C109.065 42.4558 110.55 43.8143 110.55 45.8082C110.55 47.776 109.065 49.1589 107.347 49.1589ZM94.9316 40.2783C91.7933 40.2783 89.2416 42.602 89.2416 45.8082C89.2416 48.9883 91.7933 51.3364 94.9316 51.3364C98.0683 51.3364 100.622 48.9883 100.622 45.8082C100.622 42.602 98.0683 40.2783 94.9316 40.2783ZM94.9316 49.1589C93.2116 49.1589 91.7283 47.776 91.7283 45.8082C91.7283 43.8143 93.2116 42.4558 94.9316 42.4558C96.65 42.4558 98.1283 43.8143 98.1283 45.8082C98.1283 47.776 96.65 49.1589 94.9316 49.1589ZM80.1583 41.9732V44.3229H85.9133C85.745 45.6359 85.295 46.6012 84.605 47.2739C83.765 48.0864 82.4566 48.9883 80.1583 48.9883C76.6166 48.9883 73.8433 46.2014 73.8433 42.7483C73.8433 39.2952 76.6166 36.5083 80.1583 36.5083C82.0733 36.5083 83.4666 37.2379 84.495 38.1837L86.1933 36.5278C84.755 35.1888 82.8416 34.1602 80.1583 34.1602C75.3016 34.1602 71.22 38.013 71.22 42.7483C71.22 47.4835 75.3016 51.3364 80.1583 51.3364C82.7833 51.3364 84.755 50.4979 86.305 48.9249C87.8933 47.3763 88.3883 45.1988 88.3883 43.4405C88.3883 42.8945 88.3416 42.3924 88.2583 41.9732H80.1583ZM140.568 43.7948C140.1 42.5582 138.655 40.2783 135.712 40.2783C132.795 40.2783 130.367 42.5192 130.367 45.8082C130.367 48.9054 132.77 51.3364 135.992 51.3364C138.597 51.3364 140.1 49.7878 140.718 48.8859L138.785 47.6298C138.14 48.5495 137.262 49.1589 135.992 49.1589C134.73 49.1589 133.825 48.595 133.245 47.4835L140.83 44.4237L140.568 43.7948ZM132.835 45.6359C132.77 43.5039 134.533 42.4119 135.797 42.4119C136.787 42.4119 137.627 42.8945 137.907 43.5852L132.835 45.6359ZM126.67 51H129.163V34.75H126.67V51ZM122.587 41.51H122.503C121.943 40.8633 120.875 40.2783 119.522 40.2783C116.682 40.2783 114.085 42.7093 114.085 45.826C114.085 48.9249 116.682 51.3364 119.522 51.3364C120.875 51.3364 121.943 50.7465 122.503 50.0803H122.587V50.8733C122.587 52.9874 121.428 54.1233 119.56 54.1233C118.037 54.1233 117.092 53.0508 116.702 52.1489L114.533 53.0313C115.158 54.497 116.813 56.3008 119.56 56.3008C122.483 56.3008 124.95 54.6238 124.95 50.5434V40.6147H122.587V41.51ZM119.735 49.1589C118.017 49.1589 116.578 47.7565 116.578 45.826C116.578 43.8777 118.017 42.4558 119.735 42.4558C121.428 42.4558 122.763 43.8777 122.763 45.826C122.763 47.7565 121.428 49.1589 119.735 49.1589ZM152.242 34.75H146.278V51H148.765V44.8429H152.242C155.003 44.8429 157.712 42.8945 157.712 39.7957C157.712 36.6984 154.997 34.75 152.242 34.75ZM152.307 42.5825H148.765V37.0104H152.307C154.163 37.0104 155.223 38.5135 155.223 39.7957C155.223 41.0534 154.163 42.5825 152.307 42.5825ZM167.678 40.2474C165.882 40.2474 164.013 41.0209 163.245 42.7353L165.452 43.6372C165.927 42.7353 166.8 42.4428 167.723 42.4428C169.013 42.4428 170.322 43.1984 170.342 44.5325V44.7032C169.892 44.4497 168.928 44.0743 167.743 44.0743C165.367 44.0743 162.945 45.3499 162.945 47.7305C162.945 49.908 164.892 51.3104 167.08 51.3104C168.753 51.3104 169.677 50.5743 170.257 49.7179H170.342V50.974H172.743V44.7405C172.743 41.8594 170.537 40.2474 167.678 40.2474ZM167.378 49.1524C166.565 49.1524 165.432 48.7592 165.432 47.776C165.432 46.5183 166.845 46.0357 168.068 46.0357C169.163 46.0357 169.677 46.2713 170.342 46.5817C170.147 48.0864 168.818 49.1524 167.378 49.1524ZM181.493 40.6033L178.635 47.6477H178.55L175.595 40.6033H172.913L177.353 50.4475L174.82 55.9254H177.418L184.26 40.6033H181.493ZM159.078 51H161.572V34.75H159.078V51Z" fill="#4CFFB3"/>
<defs>
<filter id="filter0_d_4047_8108" x="0.5" y="0" width="220" height="92" filterUnits="userSpaceOnUse" color-interpolation-filters="sRGB">
<feFlood flood-opacity="0" result="BackgroundImageFix"/>
<feColorMatrix in="SourceAlpha" type="matrix" values="0 0 0 0 0 0 0 0 0 0 0 0 0 0 0 0 0 0 127 0" result="hardAlpha"/>
<feOffset dx="4" dy="8"/>
<feGaussianBlur stdDeviation="10"/>
<feComposite in2="hardAlpha" operator="out"/>
<feColorMatrix type="matrix" values="0 0 0 0 0.0705882 0 0 0 0 0.0823529 0 0 0 0 0.0901961 0 0 0 0.4 0"/>
<feBlend mode="normal" in2="BackgroundImageFix" result="effect1_dropShadow_4047_8108"/>
<feBlend mode="normal" in="SourceGraphic" in2="effect1_dropShadow_4047_8108" result="shape"/>
</filter>
</defs>
</svg>
