<svg width="40" height="37" viewBox="0 0 40 37" fill="none" xmlns="http://www.w3.org/2000/svg">
<path d="M11.3877 3.31689C11.3877 2.76461 11.8354 2.31689 12.3877 2.31689H28.3877C28.94 2.31689 29.3877 2.76461 29.3877 3.31689V10.3169H11.3877V3.31689Z" fill="#00FFD0"/>
<g filter="url(#filter0_d_5_77)">
<path fill-rule="evenodd" clip-rule="evenodd" d="M9.3877 6.98749C9.3877 6.06484 10.1356 5.31689 11.0583 5.31689H23.1974C23.883 5.31689 24.5519 5.52754 25.1138 5.92031L28.9593 8.60851C29.8544 9.23428 30.3877 10.2577 30.3877 11.3499V29.6463C30.3877 30.5689 29.6397 31.3169 28.7171 31.3169H11.0583C10.1356 31.3169 9.3877 30.5689 9.3877 29.6463V6.98749Z" fill="#00DDB4"/>
</g>
<defs>
<filter id="filter0_d_5_77" x="6.3877" y="2.31689" width="29" height="34" filterUnits="userSpaceOnUse" color-interpolation-filters="sRGB">
<feFlood flood-opacity="0" result="BackgroundImageFix"/>
<feColorMatrix in="SourceAlpha" type="matrix" values="0 0 0 0 0 0 0 0 0 0 0 0 0 0 0 0 0 0 127 0" result="hardAlpha"/>
<feOffset dx="1" dy="1"/>
<feGaussianBlur stdDeviation="2"/>
<feColorMatrix type="matrix" values="0 0 0 0 0.136111 0 0 0 0 0.146296 0 0 0 0 0.166667 0 0 0 1 0"/>
<feBlend mode="normal" in2="BackgroundImageFix" result="effect1_dropShadow_5_77"/>
<feBlend mode="normal" in="SourceGraphic" in2="effect1_dropShadow_5_77" result="shape"/>
</filter>
</defs>
</svg>
