<svg width="20" height="30" viewBox="0 0 20 30" fill="none" xmlns="http://www.w3.org/2000/svg">
<mask id="path-1-inside-1_4_982" fill="white">
<path d="M0 23H20V30H0V23Z"/>
</mask>
<path d="M0 23H20V30H0V23Z" fill="#D08439"/>
<path d="M20 30V30.3H20.3V30H20ZM0 30H-0.3V30.3H0V30ZM19.7 23V30H20.3V23H19.7ZM20 29.7H0V30.3H20V29.7ZM0.3 30V23H-0.3V30H0.3Z" fill="black" mask="url(#path-1-inside-1_4_982)"/>
<rect x="1" y="25.8" width="4" height="1.4" fill="black"/>
<rect x="7" y="25.8" width="6" height="1.4" fill="black"/>
<rect x="15" y="25.8" width="4" height="1.4" fill="black"/>
<rect x="0.15" y="19.15" width="19.7" height="3.7" fill="white" stroke="black" stroke-width="0.3"/>
<path d="M7.45945 20.8041L4.56483 19.15H8.7L7.45945 20.8041Z" stroke="black" stroke-width="0.3"/>
<path d="M12.5405 20.8041L15.4352 19.15H11.3L12.5405 20.8041Z" stroke="black" stroke-width="0.3"/>
<path d="M8 26.8824L9.5 20H10.5L12 26.8824L10 29L8 26.8824Z" fill="#FA373F" stroke="black" stroke-width="0.3"/>
<path d="M9.6423 20.4526L9.20811 19.15H10.7919L10.2372 20.8141C10.1612 21.0421 9.8388 21.0421 9.76283 20.8141L9.6423 20.4526Z" fill="#F73847" stroke="black" stroke-width="0.3"/>
<path d="M0.723715 15.25C0.723715 14.7494 0.585203 14.3715 0.455146 14.0167L0.453012 14.0109C0.322142 13.6538 0.200632 13.3195 0.200632 12.875C0.200632 12.4305 0.322142 12.0962 0.453012 11.7391L0.455146 11.7333C0.585203 11.3785 0.723715 11.0006 0.723715 10.5C0.723715 9.99943 0.585204 9.62154 0.455146 9.2667L0.453012 9.26088C0.322142 8.90382 0.200632 8.56952 0.200632 8.125C0.200632 7.68048 0.322142 7.34618 0.453011 6.98912L0.455145 6.9833C0.585203 6.62846 0.723715 6.25057 0.723715 5.75C0.723715 5.24943 0.585203 4.87153 0.455145 4.5167L0.453012 4.51088C0.322142 4.15382 0.200632 3.81952 0.200632 3.375C0.200632 3.20382 0.194619 3.03695 0.188917 2.87873C0.18663 2.81528 0.184394 2.75322 0.182615 2.69283C0.176314 2.47884 0.175557 2.28218 0.195493 2.09663C0.234615 1.73252 0.353015 1.4117 0.676159 1.10957C1.2998 0.526475 2.00316 0.456983 2.89642 0.646726L4.07336 0.896726L5.25029 1.14673C5.75725 1.25441 6.14681 1.1132 6.50806 0.961527C6.54185 0.947337 6.57534 0.9331 6.60863 0.918947C6.9344 0.780448 7.24123 0.65 7.63533 0.65C8.07778 0.65 8.40907 0.766367 8.76221 0.891399L8.76769 0.89334C9.11905 1.01775 9.49257 1.15 9.9892 1.15C10.4858 1.15 10.8594 1.01775 11.2107 0.89334L11.2162 0.891399C11.5693 0.766367 11.9006 0.65 12.3431 0.65C12.7855 0.65 13.1168 0.766367 13.4699 0.891399L13.4754 0.89334C13.8268 1.01775 14.2003 1.15 14.6969 1.15C15.1936 1.15 15.5671 1.01775 15.9185 0.89334L15.9239 0.891399C16.2771 0.766367 16.6084 0.65 17.0508 0.65C17.1994 0.65 17.3405 0.647249 17.4752 0.644623C18.2259 0.629995 18.7778 0.619239 19.3022 1.10957C19.6254 1.4117 19.7438 1.73252 19.7829 2.09663C19.8029 2.28218 19.8021 2.47884 19.7958 2.69283C19.794 2.75323 19.7918 2.81531 19.7895 2.87877C19.7838 3.03698 19.7778 3.20384 19.7778 3.375C19.7778 3.81952 19.6563 4.15382 19.5254 4.51088L19.5233 4.5167C19.3932 4.87154 19.2547 5.24943 19.2547 5.75C19.2547 6.25057 19.3932 6.62846 19.5233 6.9833L19.5254 6.98912C19.6563 7.34618 19.7778 7.68048 19.7778 8.125C19.7778 8.56952 19.6563 8.90382 19.5254 9.26088L19.5233 9.2667C19.3932 9.62154 19.2547 9.99943 19.2547 10.5C19.2547 11.0006 19.3932 11.3785 19.5233 11.7333L19.5254 11.7391C19.6563 12.0962 19.7778 12.4305 19.7778 12.875C19.7778 13.3195 19.6563 13.6538 19.5254 14.0109L19.5233 14.0167C19.3932 14.3715 19.2547 14.7494 19.2547 15.25C19.2547 15.7506 19.3932 16.1285 19.5233 16.4833L19.5254 16.4891C19.6563 16.8462 19.7778 17.1805 19.7778 17.625C19.7778 17.8491 19.7972 18.0752 19.8156 18.289C19.8173 18.3087 19.8189 18.3283 19.8206 18.3477C19.8405 18.582 19.8568 18.799 19.8471 18.9981C19.8375 19.1965 19.8022 19.3665 19.7262 19.5086C19.6517 19.6479 19.5329 19.7699 19.3385 19.8654C19.0322 20.0159 18.7781 19.9312 18.4615 19.7689C18.4153 19.7452 18.3676 19.7196 18.3182 19.6931C18.0405 19.5443 17.7116 19.368 17.3192 19.3502C16.7701 19.3252 16.3533 19.47 15.9617 19.6061L15.9554 19.6083C15.5613 19.7453 15.1922 19.8724 14.7038 19.8502C14.3087 19.8322 14.0154 19.7247 13.7027 19.6093L13.6979 19.6075C13.3865 19.4926 13.0554 19.3704 12.6114 19.3502C12.0624 19.3252 11.6456 19.47 11.254 19.6061L11.2477 19.6083C10.8536 19.7453 10.4844 19.8724 9.99603 19.8502C9.60096 19.8322 9.30768 19.7247 8.99497 19.6093L8.99015 19.6075C8.67874 19.4926 8.34764 19.3704 7.90369 19.3502C7.35463 19.3252 6.93783 19.47 6.54624 19.6061L6.53993 19.6083C6.14586 19.7453 5.7767 19.8724 5.28828 19.8502C4.89321 19.8322 4.59993 19.7247 4.28723 19.6093L4.2824 19.6075C3.971 19.4926 3.63989 19.3704 3.19595 19.3502C2.70553 19.3278 2.27803 19.5434 1.91487 19.7265C1.85716 19.7557 1.80108 19.7839 1.74663 19.8103C1.54 19.9104 1.35668 19.9851 1.17943 20.0059C1.00914 20.0259 0.839666 19.9966 0.656711 19.8751C0.299235 19.6376 0.18319 19.3307 0.156442 18.9545C0.142751 18.7619 0.152955 18.5546 0.167542 18.3296C0.169586 18.2981 0.171718 18.2662 0.173871 18.234C0.18687 18.0395 0.200632 17.8336 0.200632 17.625C0.200632 17.1805 0.322142 16.8462 0.453012 16.4891L0.455144 16.4833C0.585202 16.1285 0.723715 15.7506 0.723715 15.25Z" fill="#FCF05E" stroke="black" stroke-width="0.3"/>
<path d="M4.24957 4.06368C4.46276 3.95714 4.77187 3.96898 4.9211 4.21756C5.0277 4.38328 5.17693 4.52533 5.00638 4.78574C4.83583 5.04616 3.89782 5.23555 3.73793 4.82125C3.57804 4.41879 3.98309 4.21756 4.24957 4.06368Z" fill="#9F9C08"/>
<path d="M16.031 4.43041C16.2015 4.27653 16.4786 4.27653 16.5959 4.50144C16.7345 4.69083 16.7451 4.93941 16.5639 5.10513C16.3827 5.28269 15.903 5.27085 15.7432 5.08146C15.5833 4.89206 15.8178 4.56062 16.031 4.43041Z" fill="#9F9D08"/>
<path d="M12.6859 5.02184C12.6966 4.84439 12.7072 4.67878 12.7179 4.50134C12.8457 4.50134 12.9735 4.51316 13.1014 4.51316C13.0907 4.69061 13.0801 4.85622 13.0588 5.03367C13.5275 5.08098 13.9962 5.1283 14.4755 5.08098C14.891 5.16379 15.3171 5.14013 15.7325 5.16379C16.0095 5.17562 16.2758 5.18745 16.5528 5.18745C17.128 5.16379 17.7032 5.22294 18.2785 5.18745C18.4169 5.18745 18.5554 5.17562 18.6832 5.23477C18.8111 5.71978 18.7259 6.32309 18.3424 6.64249C18.0761 6.72529 17.7991 6.77261 17.5328 6.87908C17.2771 8.10935 17.1706 9.37512 16.7978 10.5581C16.7765 10.0139 16.4675 9.52891 15.9988 9.35146C16.3184 8.42876 16.5208 7.45873 16.6593 6.4887C16.0947 6.33492 15.5088 6.34675 14.9229 6.29943C15.5195 7.10384 15.7112 8.19216 15.4875 9.18585C15.4449 9.17402 15.349 9.15036 15.3064 9.13853C15.5514 8.15667 15.3384 7.0092 14.6566 6.29943C13.5168 6.1693 12.3664 6.01552 11.2265 6.21662C11.1307 6.95006 11.2372 7.68349 11.4396 8.39327C11.5461 7.4469 12.6859 6.91457 13.3464 7.5652C13.9003 8.01472 13.9642 9.0084 13.4422 9.50525C12.9842 10.0376 12.2172 9.95477 11.7379 9.50525C11.8124 9.70635 11.8657 9.90745 11.9722 10.0967C12.3131 10.2269 12.6859 10.2387 13.0481 10.2623C13.0694 10.286 13.1227 10.3215 13.1546 10.3451C13.1653 10.6764 13.1759 11.0313 13.3783 11.3152C12.5155 11.5518 11.6207 11.1969 10.9496 10.5817C10.8217 10.9011 10.6833 11.2205 10.4809 11.4808C10.8217 10.6291 11.1413 9.70635 11.0348 8.75998C11.0241 8.21582 10.385 7.81362 9.98021 8.14485C9.64998 8.41693 9.56476 8.9256 9.62868 9.35146C9.67129 9.9666 9.89499 10.5581 9.85238 11.1732C9.84173 11.1259 9.80977 11.0431 9.79912 10.9958C9.7352 10.7592 9.67129 10.5226 9.61802 10.286C9.52215 10.4043 9.42628 10.5344 9.33041 10.6527C9.11736 10.9603 8.74453 11.0076 8.44626 11.1496C7.82842 11.398 7.15732 11.4216 6.50752 11.3507C6.55013 11.327 6.58208 11.2915 6.62469 11.2679C7.00818 11.0668 7.08275 10.5817 7.1147 10.1677C7.62602 10.1677 8.13734 10.1559 8.62735 10.0139C8.69126 9.73001 8.77648 9.45793 8.87235 9.18585C8.66996 9.49342 8.4143 9.78916 8.07342 9.86013C7.29579 10.1204 6.4436 9.22134 6.65665 8.33412C6.76317 7.50605 7.67928 7.0092 8.33973 7.42324C8.77648 7.648 8.96823 8.1685 9.01084 8.66535C9.20258 7.90825 9.36237 7.1275 9.45824 6.34675C9.3091 6.20479 9.15997 6.05101 8.94692 6.06284C7.9669 6.01552 6.97622 5.94454 5.9962 6.01552C5.38901 6.50053 4.99487 7.29311 4.94161 8.12118C4.90965 8.47607 4.98422 8.84279 5.03748 9.19768C5.00552 9.20951 4.95226 9.245 4.9203 9.26866C4.51551 8.09753 4.98422 6.79627 5.7725 5.98003C5.144 6.02735 4.50486 6.06284 3.88702 6.1693C3.88702 6.41772 3.89767 6.67798 3.92963 6.9264C3.95093 7.05652 3.98289 7.18665 4.01485 7.31677C4.19594 8.03838 4.38768 8.75998 4.64334 9.45793C4.27051 9.67086 4.00419 10.0849 4.0468 10.5699C3.69527 10.1322 3.64201 9.54073 3.48223 9.0084C3.26918 8.23948 3.20526 7.38775 2.82177 6.68981C2.68329 6.42956 2.37437 6.42956 2.14002 6.39407C1.95893 5.95637 1.98023 5.47136 2.0548 5.01001C2.69394 4.98635 3.32244 4.97452 3.96158 4.95086C4.38768 4.9272 4.80313 4.91537 5.22923 4.91537C5.93229 4.90354 6.62469 4.90354 7.32775 4.91537C7.3384 4.84439 7.37036 4.69061 7.38101 4.6078C7.49819 4.6078 7.61537 4.59597 7.7432 4.59597C7.7432 4.67878 7.7432 4.83256 7.7432 4.90354C8.35038 4.90354 8.96823 4.90354 9.57542 4.91537C9.88434 4.90354 10.0761 5.21111 10.3104 5.38855C10.5448 5.22294 10.7578 4.99818 11.0348 4.91537C11.5355 4.89171 12.1107 5.0455 12.6859 5.02184ZM2.49155 5.67246C2.47024 5.75527 2.43829 5.86173 2.53416 5.88539C2.74721 5.90905 2.96026 5.89722 3.1733 5.89722C3.1733 5.77893 3.1733 5.67246 3.1733 5.55417C2.9496 5.57783 2.69395 5.54234 2.49155 5.67246ZM17.2239 5.6488C17.2132 5.75527 17.2026 5.86174 17.1919 5.9682C17.4476 6.00369 17.9908 6.05101 17.9908 5.83808C17.9802 5.566 17.4689 5.63697 17.2239 5.6488ZM7.60472 7.47056C6.84839 7.56519 6.43295 8.68901 6.94426 9.31597C7.39167 9.9666 8.40365 9.83647 8.69127 9.06755C9.07475 8.31046 8.37169 7.28128 7.60472 7.47056ZM12.409 7.48239C11.6313 7.61251 11.2905 8.81913 11.8763 9.41061C12.3983 10.0494 13.4742 9.70635 13.6233 8.85462C13.7938 8.0857 13.1014 7.29311 12.409 7.48239ZM10.2465 7.75447C10.3104 7.75447 10.4276 7.7663 10.4809 7.7663C10.4383 7.67166 10.4063 7.58885 10.3637 7.49422C10.3211 7.57703 10.2891 7.67166 10.2465 7.75447Z" fill="#151314"/>
<path d="M2.49157 5.67253C2.69409 5.53048 2.94991 5.57783 3.18442 5.56599C3.18442 5.68437 3.18442 5.7909 3.18442 5.90927C2.97123 5.90927 2.75805 5.92111 2.54486 5.89743C2.42761 5.86192 2.47025 5.75539 2.49157 5.67253Z" fill="#FFFCFB"/>
<path d="M10.2465 7.75464C10.2039 7.7073 10.2572 7.48239 10.3744 7.49422C10.4917 7.50606 10.5557 7.69545 10.4917 7.76648C10.4277 7.8375 10.2892 7.80199 10.2465 7.75464Z" fill="#FFFCFB"/>
<path d="M17.2239 5.64879C17.4797 5.62511 17.501 5.71981 17.7568 5.74349C17.7568 5.86186 17.7249 5.75532 17.7249 5.87369C17.4584 5.89737 17.4584 6.0039 17.1919 5.96839C17.2026 5.86186 17.2132 5.75532 17.2239 5.64879Z" fill="#FFFEFD"/>
<path d="M5.94292 6.02735C6.92295 5.95637 7.91362 6.03918 8.89365 6.07467C9.1067 6.05101 9.26648 6.20479 9.40496 6.35858C9.30909 7.13933 9.14931 7.90825 8.95756 8.67718C8.91495 8.18033 8.71256 7.65983 8.28646 7.43507C7.63666 7.03286 6.7099 7.51788 6.60338 8.34595C6.37968 9.23317 7.23187 10.1204 8.02015 9.87196C8.37168 9.80099 8.62734 9.50525 8.81908 9.19768C8.72321 9.46976 8.64864 9.74184 8.57408 10.0257C8.07341 10.1677 7.56209 10.1795 7.06143 10.1795C6.96556 9.83648 6.81643 9.46976 6.5075 9.30414C6.02815 9.03206 5.47422 9.13853 4.97355 9.22134C4.93094 8.86645 4.85638 8.51156 4.87768 8.14484C4.9416 7.31677 5.33574 6.51236 5.94292 6.02735Z" fill="white"/>
<path d="M11.2159 6.24028C12.3557 6.03918 13.5062 6.19296 14.646 6.32309C15.3277 7.03286 15.5301 8.18033 15.2958 9.16219C14.4968 9.16219 13.5914 9.4461 13.1866 10.286C13.144 10.286 13.0694 10.286 13.0268 10.2742C12.6646 10.2505 12.2918 10.2387 11.9509 10.1086C11.855 9.91928 11.8018 9.71818 11.7165 9.51708C12.1959 9.9666 12.9629 10.0494 13.4209 9.51708C13.9536 9.0084 13.879 8.02655 13.3251 7.57703C12.6753 6.9264 11.5355 7.45873 11.4183 8.4051C11.2372 7.70715 11.1307 6.97371 11.2159 6.24028Z" fill="#FFFEFF"/>
<path d="M3.89769 6.78476C3.88703 6.61904 3.85505 6.2876 4.15351 6.27576C4.40933 6.20474 4.52658 6.58353 4.47329 6.80843C4.41999 7.10436 4.18549 7.17538 4.04692 7.13987C3.90835 7.09252 3.90835 6.90313 3.89769 6.78476Z" fill="#9D9D05"/>
<path d="M7.60469 7.47054C8.37167 7.28127 9.07473 8.29861 8.69124 9.06754C8.41428 9.82463 7.39164 9.95476 6.94424 9.31596C6.43292 8.68899 6.84837 7.56518 7.60469 7.47054ZM7.50882 7.99105C7.26382 8.08568 7.09338 8.36959 7.13599 8.66533C7.16794 9.26864 8.04144 9.51706 8.28645 8.94924C8.58472 8.41691 8.02014 7.67165 7.50882 7.99105Z" fill="#34BCF4"/>
<path d="M12.409 7.48238C13.1014 7.30493 13.8044 8.08569 13.6127 8.85461C13.4742 9.70634 12.3983 10.0376 11.8657 9.4106C11.2905 8.81912 11.6207 7.60067 12.409 7.48238ZM12.3877 7.96739C12.0148 8.10934 11.8763 8.67716 12.1213 9.00839C12.3877 9.39877 13.0268 9.2923 13.1759 8.83095C13.3783 8.33411 12.8564 7.74263 12.3877 7.96739Z" fill="#32BEF3"/>
<path d="M7.50909 7.9911C8.02073 7.6715 8.58567 8.41724 8.28721 8.93808C8.04205 9.50626 7.16799 9.25768 7.13601 8.65398C7.09338 8.35805 7.26392 8.0858 7.50909 7.9911Z" fill="#161314"/>
<path d="M12.3879 7.96742C12.8569 7.74252 13.3792 8.32253 13.166 8.83153C13.0274 9.30502 12.3772 9.39972 12.1107 9.00909C11.8762 8.68949 12.0148 8.10947 12.3879 7.96742Z" fill="#161212"/>
<path d="M13.1866 10.2742C13.5913 9.43426 14.4862 9.15035 15.2957 9.15035C15.3383 9.16218 15.4342 9.18584 15.4768 9.19767C15.6473 9.24499 15.8177 9.29231 15.9775 9.35146C16.4462 9.54073 16.7551 10.0139 16.7764 10.5581C16.6806 10.913 16.5527 11.3033 16.2225 11.4808C16.3503 11.0786 16.5953 10.6527 16.4675 10.215C16.3503 9.75366 15.9029 9.51707 15.5194 9.42243C14.9122 9.30414 14.2411 9.42243 13.7724 9.89561C13.5168 10.144 13.2931 10.4989 13.357 10.8893C13.4422 11.1732 13.6127 11.398 13.7405 11.6464C13.602 11.5399 13.4635 11.4335 13.3463 11.3033C13.1439 11.0313 13.1439 10.6764 13.1226 10.3333C13.1013 10.3097 13.0481 10.2742 13.0161 10.2505C13.0694 10.2742 13.1546 10.2742 13.1866 10.2742Z" fill="#CA5821"/>
<path d="M4.98423 9.2095C5.48489 9.13852 6.04947 9.02023 6.51818 9.29231C6.8271 9.45792 6.97623 9.82464 7.07211 10.1677C7.0508 10.5936 6.96558 11.0786 6.58209 11.2678C6.73123 10.9248 6.95493 10.5699 6.83775 10.1795C6.76318 9.86013 6.52883 9.59987 6.25187 9.49341C5.62337 9.24499 4.84575 9.37511 4.36639 9.90744C4.14269 10.144 4.10008 10.5699 4.27052 10.8538C4.409 11.0786 4.61139 11.2324 4.77118 11.4335C4.38769 11.3388 4.06812 10.9958 3.9829 10.5699C3.94029 10.0849 4.2066 9.67085 4.57944 9.45792C4.67531 9.38694 4.77118 9.32779 4.86705 9.26864C4.89901 9.26864 4.95227 9.23316 4.98423 9.2095Z" fill="#CA5821"/>
<path d="M14.2518 9.78916C14.3797 9.74181 14.4224 9.78917 14.3797 9.93121C14.2518 9.97856 14.2092 9.93121 14.2518 9.78916Z" fill="#CA5821"/>
<path d="M4.71793 9.91929C4.86715 9.87195 4.92045 9.93113 4.86715 10.0969C4.71792 10.1442 4.66463 10.085 4.71793 9.91929Z" fill="#CA5821"/>
<path d="M5.94293 9.89563C6.07084 9.83645 6.11348 9.8838 6.0815 10.0377C5.95359 10.085 5.91095 10.0377 5.94293 9.89563Z" fill="#CA5821"/>
<path d="M15.7964 9.91928C15.9243 9.81275 16.0629 10.0495 15.935 10.1324C15.8071 10.2389 15.6578 10.014 15.7964 9.91928Z" fill="#CA5821"/>
<path d="M5.53816 10.2032C5.68739 10.1559 5.74069 10.215 5.68739 10.3808C5.53816 10.4281 5.49553 10.3689 5.53816 10.2032Z" fill="#CA5821"/>
<path d="M15.1466 10.2978C15.2745 10.2505 15.3172 10.2978 15.2745 10.4399C15.1466 10.4872 15.104 10.4399 15.1466 10.2978Z" fill="#CA5821"/>
<path d="M5.06941 11.1259C5.13333 10.6409 5.74051 10.5344 6.01748 10.8657C5.85769 10.8775 5.69791 10.8775 5.53812 10.8893C5.75117 11.8948 6.48618 12.6283 7.28512 13.0778C8.79776 13.9532 10.63 14.0123 12.2385 13.4327C13.4103 12.995 14.5501 12.1432 15.0188 10.8183C14.8377 10.8538 14.6566 10.8893 14.4755 10.9248C14.7205 10.4989 15.4236 10.5463 15.5834 11.0431C15.4449 10.9839 15.3064 10.913 15.1679 10.842C14.6246 12.439 13.1866 13.3617 11.7804 13.823C11.7804 13.894 11.7804 14.0478 11.7804 14.1306C11.7698 14.5565 11.7698 14.9942 11.7698 15.42C11.7272 15.42 11.642 15.42 11.61 15.42C11.1733 15.42 10.7365 15.3727 10.3104 15.3017C10.2891 14.8877 10.2891 14.4618 10.3104 14.0478C10.2678 14.0596 10.1932 14.0833 10.1506 14.0833C10.1506 14.4973 10.1506 14.9114 10.1506 15.3254V15.4082C9.6393 15.3846 9.12799 15.42 8.62732 15.3609C8.61667 14.8641 8.61667 14.3672 8.65928 13.8822C7.63665 13.5391 6.58206 13.0423 5.92161 12.0604C5.6766 11.7174 5.51681 11.327 5.39963 10.913C5.28246 10.9721 5.17594 11.0431 5.06941 11.1259ZM10.4702 14.0123C10.4595 14.379 10.4489 14.7576 10.4595 15.1243C10.843 15.1243 11.2265 15.1598 11.61 15.1834C11.578 14.7221 11.5994 14.2726 11.61 13.8112C11.2372 13.894 10.8537 13.9768 10.4702 14.0123ZM8.80841 13.8822C8.78711 14.2962 8.79776 14.7221 8.79776 15.1361C9.1919 15.148 9.59669 15.1598 9.99083 15.1598C10.0015 14.7812 9.98018 14.4027 9.98018 14.0242C9.58604 14.0242 9.1919 13.9413 8.80841 13.8822Z" fill="#0B060A"/>
<path d="M14.9869 13.7521C15.3491 13.5746 15.8178 13.823 15.8284 14.2844C15.8391 15.0178 15.0295 15.8459 14.3903 15.42C13.9429 14.8522 14.4223 13.965 14.9869 13.7521Z" fill="#9E9D05"/>
<path d="M10.4702 14.0124C10.854 13.9769 11.2377 13.8941 11.6214 13.8112C11.6108 14.2729 11.5895 14.7227 11.6214 15.1843C11.2377 15.1606 10.854 15.1251 10.4702 15.1251C10.4489 14.7582 10.4489 14.3912 10.4702 14.0124Z" fill="#FEFFFD"/>
<path d="M8.80843 13.8822C9.20282 13.9414 9.58656 14.0242 9.98095 14.0242C9.98095 14.403 10.0023 14.7818 9.99161 15.1606C9.59722 15.1606 9.19217 15.1488 8.79777 15.1369C8.78711 14.7226 8.78711 14.2965 8.80843 13.8822Z" fill="#FEFFFF"/>
<path d="M4.89899 14.6988C4.89899 14.4029 4.96294 14.1543 5.35733 14.107C5.75172 14.0596 5.82634 15.1605 5.35733 15.3617C5.01624 15.4682 4.83503 15.0066 4.89899 14.6988Z" fill="#9E9C05"/>
<path d="M6.11369 15.3491C6.43347 15.1597 6.80654 15.4556 6.83852 15.8226C6.92379 16.3908 6.42281 17.1602 5.86853 16.8879C5.38887 16.5091 5.62337 15.5977 6.11369 15.3491Z" fill="#9E9D07"/>
<path d="M7.58342 15.42C8.03082 15.8341 8.54214 16.2008 9.12802 16.2836C9.63934 16.3191 10.0867 15.905 10.5981 16.0115C11.0455 16.047 11.5035 16.2836 11.9403 16.0825C12.2279 15.976 12.4622 15.7513 12.6859 15.5383C12.6859 15.5975 12.6753 15.7158 12.6753 15.7867C12.377 16.0352 12.0787 16.3191 11.7059 16.3901C11.2372 16.4374 10.7898 16.1653 10.3211 16.189C9.93761 16.2008 9.59673 16.461 9.21324 16.4965C8.56345 16.4492 7.96691 16.0115 7.58342 15.42Z" fill="#F98F98"/>
<path d="M14.0496 15.8459C14.2095 15.8459 14.4227 15.8341 14.4867 15.9998C14.54 16.1655 14.3907 16.4377 14.2202 16.5443C14.1029 16.6508 13.8791 16.6863 13.7938 16.5206C13.6339 16.2602 13.8578 15.9761 14.0496 15.8459Z" fill="#9D9C08"/>
</svg>
