<svg width="29" height="34" viewBox="0 0 29 34" fill="none" xmlns="http://www.w3.org/2000/svg">
<path fill-rule="evenodd" clip-rule="evenodd" d="M26.0446 26.9598C27.244 28.3546 26.7667 30.4097 25.0525 31.2312L22.0301 32.6796C20.6871 33.3231 19.0351 32.9723 18.1344 31.8522L12.4016 24.7239L8.19299 29.343C6.94497 30.7127 4.6128 30.5797 3.55815 29.0784L2.10073 27.0038C1.44657 26.0727 1.48983 24.8656 2.20912 23.9759L7.06786 17.9676L1.57201 10.874C0.954492 10.0771 0.827782 9.04317 1.23666 8.13948L2.5778 5.17691C3.31389 3.55079 5.68067 3.25713 6.85821 4.6458L12.4892 11.2859L20.237 2.09632C21.3846 0.735051 23.5758 0.624051 24.879 1.86097L27.56 4.406C28.6617 5.45184 28.7223 7.09646 27.6997 8.20833L18.5114 18.2002L26.0443 26.9596L26.0446 26.9598ZM23.6361 2.9705C23.0659 2.42932 22.1074 2.47779 21.6052 3.0733L12.7963 13.5211C12.6426 13.7035 12.3434 13.7038 12.1889 13.522L5.49315 5.6263C5.13083 5.19893 4.40263 5.28932 4.17618 5.78975L2.83504 8.75232C2.65617 9.14761 2.71164 9.59981 2.9816 9.94873L9.04688 17.7775C9.14382 17.9028 9.14204 18.0712 9.0423 18.1946L3.59784 24.9274C3.31008 25.2831 3.29277 25.766 3.55459 26.1385L5.01175 28.2131C5.43361 28.8135 6.36638 28.8669 6.86559 28.319L12.1721 22.495C12.3322 22.3196 12.6281 22.3278 12.7764 22.5118L19.5256 30.904C19.9198 31.3939 20.6424 31.5476 21.2301 31.2661L24.2526 29.8177C25.0024 29.4582 25.2113 28.5592 24.6866 27.949L16.4696 18.3941C16.3559 18.2618 16.3592 18.0742 16.4775 17.9454L26.3779 7.17889C26.8252 6.69251 26.7987 5.97288 26.3168 5.5153L23.6358 2.97027L23.6361 2.9705Z" fill="#B0C0C8" stroke="#B0C0C8" stroke-width="0.5"/>
</svg>
